<svg width="800" height="800" viewBox="0 0 800 800" fill="none" xmlns="http://www.w3.org/2000/svg">
<circle cx="400" cy="400" r="400" fill="#0070FF"/>
<circle cx="400" cy="400" r="360" fill="#D9D9D9"/>
<path d="M277.338 517.509C274.16 520.578 269.081 520.502 266.156 517.19C239.652 487.185 223.854 449.128 221.4 409.017C218.784 366.238 231.517 323.93 257.31 289.701C283.103 255.473 320.263 231.571 362.105 222.295C401.34 213.597 442.276 218.293 478.425 235.5C482.414 237.399 483.888 242.26 481.814 246.161L472.424 263.82C470.35 267.721 465.514 269.18 461.504 267.325C432.943 254.118 400.761 250.599 369.897 257.441C336.423 264.862 306.695 283.984 286.061 311.367C265.427 338.749 255.24 372.596 257.333 406.819C259.263 438.374 271.516 468.338 292.084 492.152C294.972 495.496 294.903 500.547 291.725 503.616L277.338 517.509Z" fill="#007FFF"/>
<path d="M317.996 535.243C319.486 541.218 313.949 546.566 308.029 544.868L266.405 532.933C260.485 531.235 258.623 523.766 263.053 519.488L294.201 489.408C298.631 485.13 306.031 487.252 307.521 493.228L317.996 535.243Z" fill="#007FFF"/>
<path d="M523.144 283.016C526.323 279.946 531.402 280.023 534.327 283.335C560.831 313.34 576.629 351.396 579.082 391.508C581.699 434.287 568.965 476.595 543.172 510.824C517.379 545.052 480.22 568.954 438.377 578.23C399.143 586.928 358.206 582.232 322.058 565.025C318.068 563.126 316.595 558.265 318.669 554.364L328.058 536.705C330.132 532.804 334.969 531.345 338.979 533.199C367.54 546.407 399.721 549.926 430.585 543.083C464.059 535.662 493.787 516.541 514.421 489.158C535.056 461.776 545.242 427.929 543.149 393.706C541.219 362.151 528.967 332.186 508.398 308.373C505.51 305.029 505.579 299.978 508.758 296.909L523.144 283.016Z" fill="#007FFF"/>
<path d="M481.792 264.563C480.302 258.587 485.839 253.24 491.759 254.937L533.383 266.873C539.303 268.57 541.165 276.039 536.735 280.317L505.587 310.397C501.157 314.675 493.757 312.553 492.267 306.578L481.792 264.563Z" fill="#007FFF"/>
</svg>
