<svg width="1200" height="620" viewBox="0 0 1200 620" fill="none" xmlns="http://www.w3.org/2000/svg">
<g clip-path="url(#clip0_620_8133)">
<rect width="1200" height="620" fill="#F9E9B2"/>
<path d="M646 626.144C555.355 842.216 1270 626.144 1270 626.144V6.14435C1270 6.14435 626.5 -317 558.5 119C532.844 283.5 698.5 501 646 626.144Z" fill="#FACDC4"/>
<path d="M127.575 73.134L125.954 71.5731L126.618 70.884H127.575V73.134ZM118.05 83.0225L116.429 81.4616L116.429 81.4616L118.05 83.0225ZM115.167 73.134V70.884H117.417V73.134H115.167ZM213.342 40.3325C213.342 38.6301 211.962 37.25 210.26 37.25V32.75C214.447 32.75 217.842 36.1448 217.842 40.3325H213.342ZM213.342 67.8015V40.3325H217.842V67.8015H213.342ZM210.26 70.884C211.962 70.884 213.342 69.5039 213.342 67.8015H217.842C217.842 71.9892 214.447 75.384 210.26 75.384V70.884ZM127.575 70.884H210.26V75.384H127.575V70.884ZM116.429 81.4616L125.954 71.5731L129.195 74.695L119.67 84.5834L116.429 81.4616ZM117.417 81.7339C117.417 81.5641 117.295 81.3909 117.133 81.3185C117.053 81.283 116.937 81.2568 116.793 81.2804C116.634 81.3063 116.504 81.3837 116.429 81.4616L119.67 84.5834C118.413 85.8887 116.649 86.0316 115.296 85.4266C113.956 84.8274 112.917 83.4644 112.917 81.7339H117.417ZM117.417 73.134V81.7339H112.917V73.134H117.417ZM102.288 70.884H115.167V75.384H102.288V70.884ZM99.2058 67.8015C99.2058 69.5039 100.586 70.884 102.288 70.884V75.384C98.1007 75.384 94.7058 71.9892 94.7058 67.8015H99.2058ZM99.2058 40.3325V67.8015H94.7058V40.3325H99.2058ZM102.288 37.25C100.586 37.25 99.2058 38.6301 99.2058 40.3325H94.7058C94.7058 36.1448 98.1006 32.75 102.288 32.75V37.25ZM210.26 37.25H102.288V32.75H210.26V37.25Z" fill="#4E5052"/>
<path d="M242.881 135.217L244.502 133.656L243.838 132.967H242.881V135.217ZM252.406 145.108L250.786 146.669L250.786 146.669L252.406 145.108ZM255.289 135.217V132.967H253.039V135.217H255.289ZM157.114 102.406C157.114 100.704 158.494 99.3239 160.196 99.3239V94.8239C156.008 94.8239 152.614 98.2187 152.614 102.406H157.114ZM157.114 129.884V102.406H152.614V129.884H157.114ZM160.196 132.967C158.494 132.967 157.114 131.587 157.114 129.884H152.614C152.614 134.072 156.008 137.467 160.196 137.467V132.967ZM242.881 132.967H160.196V137.467H242.881V132.967ZM254.027 143.547L244.502 133.656L241.26 136.778L250.786 146.669L254.027 143.547ZM253.039 143.819C253.039 143.65 253.161 143.476 253.323 143.404C253.402 143.369 253.519 143.342 253.663 143.366C253.822 143.392 253.952 143.469 254.027 143.547L250.786 146.669C252.043 147.974 253.807 148.117 255.16 147.512C256.5 146.913 257.539 145.549 257.539 143.819H253.039ZM253.039 135.217V143.819H257.539V135.217H253.039ZM268.167 132.967H255.289V137.467H268.167V132.967ZM271.25 129.884C271.25 131.587 269.87 132.967 268.167 132.967V137.467C272.355 137.467 275.75 134.072 275.75 129.884H271.25ZM271.25 102.406V129.884H275.75V102.406H271.25ZM268.167 99.3239C269.87 99.3239 271.25 100.704 271.25 102.406H275.75C275.75 98.2187 272.355 94.8239 268.167 94.8239V99.3239ZM160.196 99.3239H268.167V94.8239H160.196V99.3239Z" fill="#4E5052"/>
<circle cx="253.073" cy="175.826" r="19.427" fill="#F7F7F5" stroke="#4E5052" stroke-width="4.5"/>
<path d="M264.961 190.468V188.286C264.961 186.686 264.325 185.152 263.194 184.021C262.063 182.89 260.529 182.255 258.93 182.255H246.868C245.268 182.255 243.734 182.89 242.603 184.021C241.472 185.152 240.836 186.686 240.836 188.286V190.468" fill="#F7F7F5"/>
<path d="M264.961 190.468V188.286C264.961 186.686 264.325 185.152 263.194 184.021C262.063 182.89 260.529 182.255 258.93 182.255H246.868C245.268 182.255 243.734 182.89 242.603 184.021C241.472 185.152 240.836 186.686 240.836 188.286V190.468" stroke="#4E5052" stroke-width="4.5" stroke-linecap="round" stroke-linejoin="round"/>
<path d="M252.898 176.224C256.229 176.224 258.929 173.523 258.929 170.193C258.929 166.862 256.229 164.162 252.898 164.162C249.568 164.162 246.867 166.862 246.867 170.193C246.867 173.523 249.568 176.224 252.898 176.224Z" fill="#F7F7F5" stroke="#4E5052" stroke-width="4.5" stroke-linecap="round" stroke-linejoin="round"/>
<circle cx="117.677" cy="115.001" r="19.427" fill="#F7F7F5" stroke="#4E5052" stroke-width="4.5"/>
<path d="M129.565 129.644V127.462C129.565 125.862 128.929 124.328 127.798 123.197C126.667 122.066 125.133 121.43 123.534 121.43H111.471C109.872 121.43 108.338 122.066 107.207 123.197C106.076 124.328 105.44 125.862 105.44 127.462V129.644" stroke="#4E5052" stroke-width="4.5" stroke-linecap="round" stroke-linejoin="round"/>
<path d="M117.502 115.399C120.833 115.399 123.533 112.699 123.533 109.368C123.533 106.038 120.833 103.337 117.502 103.337C114.171 103.337 111.471 106.038 111.471 109.368C111.471 112.699 114.171 115.399 117.502 115.399Z" fill="#F7F7F5" stroke="#4E5052" stroke-width="4.5" stroke-linecap="round" stroke-linejoin="round"/>
<line x1="202.845" y1="116.487" x2="254.17" y2="116.487" stroke="#4E5052" stroke-width="4.5" stroke-linecap="round"/>
<line x1="132.022" y1="54.4132" x2="198.345" y2="54.4132" stroke="#4E5052" stroke-width="4.5" stroke-linecap="round"/>
<path d="M133.603 430V496.821M133.603 558.397V496.821M133.603 496.821H51.554M133.603 496.821H213.75" stroke="#4E5052" stroke-width="4.5"/>
<circle cx="83.2156" cy="479.339" r="10.376" fill="#F7F7F5" stroke="#4E5052" stroke-width="4.5"/>
<circle cx="179.174" cy="535.282" r="10.376" fill="#F7F7F5" stroke="#4E5052" stroke-width="4.5"/>
<circle cx="169.462" cy="457.972" r="10.376" fill="#F7F7F5" stroke="#4E5052" stroke-width="4.5"/>
<circle cx="108.468" cy="517.411" r="10.376" fill="#F7F7F5" stroke="#4E5052" stroke-width="4.5"/>
<line x1="119.459" y1="430.968" x2="146.816" y2="430.968" stroke="#4E5052" stroke-width="4.5" stroke-linecap="round"/>
<line x1="213.086" y1="483.337" x2="213.086" y2="510.694" stroke="#4E5052" stroke-width="4.5" stroke-linecap="round"/>
<line x1="52.25" y1="483.337" x2="52.25" y2="510.694" stroke="#4E5052" stroke-width="4.5" stroke-linecap="round"/>
<line x1="119.459" y1="559.644" x2="146.816" y2="559.644" stroke="#4E5052" stroke-width="4.5" stroke-linecap="round"/>
<mask id="path-22-outside-1_620_8133" maskUnits="userSpaceOnUse" x="349.985" y="235.039" width="133.588" height="129.871" fill="black">
<rect fill="white" x="349.985" y="235.039" width="133.588" height="129.871"/>
<path d="M357.645 264.233C357.63 264.164 357.674 264.095 357.743 264.079C376.738 259.594 391.588 256.089 406.425 252.586C421.351 249.062 436.264 245.542 455.373 241.03C455.444 241.014 455.515 241.058 455.53 241.128L475.836 333.156C475.851 333.221 475.824 333.282 475.761 333.303C474.047 333.865 450.706 341.486 428.642 346.695C406.556 351.909 379.741 356.125 377.818 356.425C377.75 356.435 377.696 356.39 377.682 356.323L357.645 264.233Z"/>
</mask>
<path d="M357.645 264.233C357.63 264.164 357.674 264.095 357.743 264.079C376.738 259.594 391.588 256.089 406.425 252.586C421.351 249.062 436.264 245.542 455.373 241.03C455.444 241.014 455.515 241.058 455.53 241.128L475.836 333.156C475.851 333.221 475.824 333.282 475.761 333.303C474.047 333.865 450.706 341.486 428.642 346.695C406.556 351.909 379.741 356.125 377.818 356.425C377.75 356.435 377.696 356.39 377.682 356.323L357.645 264.233Z" fill="#F9E9B2"/>
<path d="M377.818 356.425L377.124 351.979L377.818 356.425ZM475.836 333.156L480.231 332.186L475.836 333.156ZM475.761 333.303L477.164 337.579L475.761 333.303ZM455.53 241.128L459.925 240.159L455.53 241.128ZM357.645 264.233L362.042 263.276L357.645 264.233ZM451.136 242.098L471.442 334.125L480.231 332.186L459.925 240.159L451.136 242.098ZM382.079 355.366L362.042 263.276L353.248 265.189L373.285 357.28L382.079 355.366ZM474.358 329.027C472.662 329.584 449.474 337.153 427.608 342.315L429.676 351.074C451.938 345.819 475.432 338.147 477.164 337.579L474.358 329.027ZM427.608 342.315C405.707 347.486 379.044 351.679 377.124 351.979L378.511 360.871C380.437 360.571 407.405 356.332 429.676 351.074L427.608 342.315ZM358.777 268.458C363.577 267.325 367.963 266.29 372.311 265.263C372.344 265.255 372.378 265.248 372.411 265.24C372.445 265.232 372.478 265.224 372.512 265.216C372.52 265.214 372.704 265.17 372.713 265.168C372.73 265.164 373.097 265.078 373.114 265.074C373.151 265.065 373.877 264.894 373.912 264.885C373.932 264.881 374.291 264.796 374.31 264.791C374.343 264.784 374.376 264.776 374.409 264.768C374.442 264.76 374.475 264.752 374.508 264.745C374.518 264.742 374.697 264.7 374.707 264.698C374.749 264.688 375.456 264.521 375.497 264.511C375.519 264.506 375.868 264.424 375.89 264.418C375.923 264.411 375.955 264.403 375.988 264.395C376.021 264.387 376.054 264.38 376.086 264.372C376.098 264.369 376.271 264.328 376.282 264.326C376.331 264.314 377.016 264.152 377.064 264.141C377.09 264.135 377.428 264.055 377.453 264.049C377.486 264.042 377.518 264.034 377.551 264.026C377.583 264.019 377.615 264.011 377.648 264.003C377.661 264 377.828 263.961 377.842 263.958C377.899 263.944 378.559 263.788 378.616 263.775C378.646 263.768 378.971 263.691 379.001 263.684C379.033 263.676 379.065 263.669 379.097 263.661C379.129 263.654 379.161 263.646 379.193 263.638C379.21 263.635 379.37 263.597 379.386 263.593C379.455 263.577 380.084 263.428 380.152 263.412C380.17 263.408 380.325 263.371 380.343 263.367C380.375 263.36 380.407 263.352 380.438 263.345C380.47 263.337 380.502 263.33 380.534 263.322C380.573 263.313 380.875 263.241 380.915 263.232C381.002 263.212 381.588 263.073 381.674 263.053C381.775 263.029 382.33 262.898 382.43 262.874C382.487 262.861 382.749 262.799 382.806 262.786C382.838 262.778 382.869 262.771 382.9 262.763C382.932 262.756 382.963 262.749 382.994 262.741C383.027 262.734 383.15 262.705 383.182 262.697C383.532 262.614 384.331 262.426 384.677 262.344C392.457 260.507 400.202 258.679 407.459 256.966L405.391 248.206C398.134 249.92 390.389 251.748 382.609 253.585C382.263 253.666 381.464 253.855 381.114 253.938C381.082 253.945 380.959 253.974 380.926 253.982C380.895 253.989 380.864 253.997 380.832 254.004C380.801 254.012 380.77 254.019 380.738 254.026C380.681 254.04 380.419 254.102 380.362 254.115C380.262 254.139 379.707 254.27 379.606 254.294C379.52 254.314 378.934 254.452 378.847 254.473C378.808 254.482 378.505 254.554 378.466 254.563C378.434 254.57 378.402 254.578 378.37 254.585C378.339 254.593 378.307 254.6 378.275 254.608C378.257 254.612 378.102 254.649 378.084 254.653C378.016 254.669 377.387 254.818 377.318 254.834C377.302 254.838 377.142 254.875 377.126 254.879C377.094 254.887 377.061 254.894 377.029 254.902C376.997 254.91 376.965 254.917 376.933 254.925C376.903 254.932 376.578 255.008 376.548 255.016C376.492 255.029 375.831 255.185 375.774 255.198C375.76 255.202 375.593 255.241 375.58 255.244C375.547 255.252 375.515 255.259 375.483 255.267C375.45 255.275 375.418 255.282 375.386 255.29C375.36 255.296 375.022 255.376 374.996 255.382C374.948 255.393 374.263 255.555 374.214 255.566C374.203 255.569 374.03 255.61 374.018 255.613C373.986 255.621 373.953 255.628 373.92 255.636C373.888 255.644 373.855 255.651 373.822 255.659C373.8 255.664 373.451 255.747 373.429 255.752C373.388 255.762 372.681 255.929 372.639 255.939C372.629 255.941 372.451 255.983 372.44 255.985C372.407 255.993 372.374 256.001 372.341 256.009C372.308 256.017 372.275 256.024 372.242 256.032C372.223 256.037 371.864 256.121 371.844 256.126C371.809 256.134 371.083 256.306 371.046 256.315C371.029 256.319 370.662 256.405 370.645 256.409C370.636 256.411 370.452 256.455 370.444 256.457C370.41 256.465 370.377 256.472 370.343 256.48C370.31 256.488 370.276 256.496 370.243 256.504C365.895 257.53 361.51 258.566 356.709 259.699L358.777 268.458ZM407.459 256.966C414.76 255.242 422.544 253.404 430.365 251.558C430.713 251.476 431.515 251.286 431.868 251.203C431.9 251.196 432.024 251.166 432.056 251.159C432.088 251.151 432.119 251.144 432.151 251.136C432.182 251.129 432.214 251.122 432.245 251.114C432.303 251.101 432.566 251.038 432.624 251.025C432.724 251.001 433.282 250.869 433.384 250.845C433.47 250.825 434.059 250.686 434.147 250.665C434.186 250.656 434.49 250.584 434.53 250.575C434.562 250.567 434.593 250.56 434.625 250.552C434.657 250.545 434.689 250.537 434.721 250.53C434.74 250.525 434.895 250.489 434.913 250.484C434.982 250.468 435.614 250.319 435.684 250.302C435.7 250.299 435.861 250.261 435.877 250.257C435.909 250.249 435.941 250.242 435.974 250.234C436.006 250.226 436.038 250.219 436.07 250.211C436.101 250.204 436.427 250.127 436.458 250.12C436.514 250.106 437.178 249.95 437.236 249.936C437.249 249.933 437.417 249.893 437.431 249.89C437.463 249.882 437.496 249.875 437.528 249.867C437.561 249.859 437.594 249.851 437.626 249.844C437.652 249.838 437.992 249.758 438.018 249.751C438.066 249.74 438.754 249.578 438.803 249.566C438.815 249.563 438.989 249.522 439 249.519C439.033 249.512 439.066 249.504 439.099 249.496C439.132 249.488 439.165 249.481 439.198 249.473C439.22 249.468 439.571 249.385 439.593 249.379C439.635 249.37 440.345 249.202 440.388 249.192C440.398 249.19 440.577 249.147 440.587 249.145C440.62 249.137 440.653 249.129 440.686 249.121C440.72 249.113 440.753 249.106 440.786 249.098C440.805 249.093 441.167 249.008 441.186 249.003C441.222 248.995 441.952 248.823 441.989 248.814C442.006 248.81 442.375 248.723 442.392 248.719C442.401 248.717 442.586 248.673 442.594 248.671C442.628 248.663 442.662 248.655 442.695 248.647C442.729 248.639 442.763 248.631 442.796 248.623C447.168 247.591 451.577 246.55 456.407 245.41L454.339 236.651C449.509 237.791 445.1 238.832 440.729 239.864C440.695 239.872 440.661 239.88 440.627 239.888C440.594 239.896 440.56 239.904 440.526 239.912C440.518 239.914 440.333 239.957 440.324 239.959C440.307 239.964 439.938 240.051 439.921 240.055C439.884 240.063 439.154 240.236 439.118 240.244C439.099 240.249 438.737 240.334 438.718 240.339C438.685 240.346 438.652 240.354 438.619 240.362C438.585 240.37 438.552 240.378 438.519 240.386C438.509 240.388 438.33 240.43 438.32 240.433C438.277 240.443 437.567 240.61 437.525 240.62C437.503 240.625 437.152 240.708 437.13 240.714C437.097 240.721 437.064 240.729 437.031 240.737C436.998 240.745 436.965 240.752 436.933 240.76C436.921 240.763 436.747 240.804 436.736 240.807C436.686 240.818 435.998 240.981 435.95 240.992C435.924 240.998 435.584 241.079 435.558 241.085C435.526 241.092 435.493 241.1 435.461 241.108C435.428 241.115 435.395 241.123 435.363 241.131C435.349 241.134 435.181 241.174 435.168 241.177C435.11 241.19 434.447 241.347 434.39 241.36C434.359 241.368 434.033 241.445 434.002 241.452C433.97 241.459 433.938 241.467 433.906 241.475C433.873 241.482 433.841 241.49 433.809 241.498C433.793 241.501 433.632 241.539 433.616 241.543C433.546 241.56 432.914 241.709 432.846 241.725C432.827 241.729 432.672 241.766 432.654 241.77C432.622 241.778 432.59 241.785 432.558 241.793C432.526 241.8 432.494 241.808 432.462 241.816C432.422 241.825 432.118 241.897 432.079 241.906C431.991 241.927 431.402 242.066 431.316 242.086C431.214 242.11 430.656 242.242 430.556 242.265C430.498 242.279 430.235 242.341 430.177 242.355C430.146 242.362 430.114 242.37 430.083 242.377C430.051 242.385 430.02 242.392 429.988 242.399C429.956 242.407 429.832 242.436 429.8 242.444C429.447 242.527 428.645 242.717 428.297 242.799C420.476 244.645 412.692 246.483 405.391 248.206L407.459 256.966ZM373.285 357.28C373.693 359.155 375.6 361.325 378.511 360.871L377.124 351.979C378.324 351.791 379.547 352.112 380.5 352.857C381.406 353.564 381.892 354.506 382.079 355.366L373.285 357.28ZM471.442 334.125C471.263 333.314 471.289 332.289 471.781 331.277C472.302 330.206 473.235 329.396 474.358 329.027L477.164 337.579C479.908 336.678 480.625 333.973 480.231 332.186L471.442 334.125ZM459.925 240.159C459.36 237.599 456.817 236.066 454.339 236.651L456.407 245.41C454.071 245.962 451.67 244.516 451.136 242.098L459.925 240.159ZM362.042 263.276C362.557 265.64 361.061 267.919 358.777 268.458L356.709 259.699C354.286 260.271 352.703 262.687 353.248 265.189L362.042 263.276Z" fill="#4E5052" mask="url(#path-22-outside-1_620_8133)"/>
<path d="M371.347 281.039C370.414 281.859 370.321 283.281 371.141 284.214C371.961 285.148 373.383 285.24 374.317 284.42L371.347 281.039ZM385.36 275.502L385.795 277.709L385.36 275.502ZM400.917 278.092L400.625 275.861L400.917 278.092ZM418.48 268.679L419.248 270.794L418.48 268.679ZM435.972 269.816L436.384 272.028L435.972 269.816ZM449.251 265.214C450.223 264.441 450.384 263.025 449.611 262.053C448.837 261.08 447.421 260.919 446.449 261.693L449.251 265.214ZM372.832 282.73C374.317 284.42 374.317 284.42 374.316 284.421C374.316 284.421 374.316 284.421 374.316 284.421C374.316 284.421 374.316 284.421 374.316 284.421C374.316 284.421 374.317 284.42 374.318 284.419C374.32 284.418 374.323 284.414 374.329 284.41C374.339 284.401 374.356 284.386 374.38 284.366C374.426 284.326 374.498 284.265 374.592 284.185C374.781 284.026 375.06 283.795 375.414 283.512C376.124 282.945 377.126 282.179 378.289 281.382C380.692 279.736 383.503 278.161 385.795 277.709L384.925 273.294C381.675 273.935 378.222 275.974 375.747 277.669C374.471 278.543 373.379 279.378 372.606 279.996C372.219 280.305 371.909 280.561 371.694 280.742C371.587 280.833 371.503 280.905 371.444 280.955C371.415 280.98 371.392 281 371.376 281.014C371.368 281.021 371.361 281.027 371.357 281.031C371.354 281.033 371.352 281.035 371.351 281.036C371.35 281.037 371.349 281.037 371.349 281.038C371.348 281.038 371.348 281.038 371.348 281.038C371.348 281.039 371.347 281.039 372.832 282.73ZM385.795 277.709C388.131 277.249 389.953 277.86 392.319 278.755C394.629 279.628 397.517 280.806 401.209 280.323L400.625 275.861C398.21 276.177 396.341 275.464 393.91 274.545C391.534 273.647 388.632 272.563 384.925 273.294L385.795 277.709ZM401.209 280.323C403.625 280.007 405.453 279.44 406.994 278.652C408.521 277.871 409.665 276.922 410.699 276.028C412.684 274.311 414.607 272.479 419.248 270.794L417.713 266.564C412.258 268.544 409.818 270.84 407.755 272.624C406.765 273.481 405.962 274.125 404.945 274.645C403.943 275.158 402.628 275.599 400.625 275.861L401.209 280.323ZM419.248 270.794C421.834 269.855 423.896 270.28 426.515 271.003C429.101 271.717 432.347 272.781 436.384 272.028L435.56 267.605C432.721 268.134 430.508 267.437 427.712 266.665C424.947 265.902 421.701 265.116 417.713 266.564L419.248 270.794ZM436.384 272.028C439.37 271.472 442.648 269.675 445.012 268.184C446.233 267.414 447.285 266.678 448.032 266.134C448.406 265.861 448.706 265.635 448.915 265.475C449.019 265.396 449.1 265.332 449.157 265.288C449.186 265.266 449.208 265.249 449.223 265.236C449.231 265.23 449.238 265.225 449.242 265.221C449.244 265.22 449.246 265.218 449.248 265.217C449.249 265.216 449.249 265.216 449.25 265.215C449.25 265.215 449.25 265.215 449.25 265.215C449.251 265.215 449.251 265.214 447.85 263.454C446.449 261.693 446.449 261.693 446.449 261.693C446.449 261.693 446.45 261.693 446.45 261.693C446.45 261.693 446.45 261.693 446.45 261.693C446.449 261.693 446.449 261.693 446.448 261.694C446.446 261.696 446.442 261.698 446.437 261.703C446.427 261.711 446.41 261.724 446.387 261.742C446.342 261.777 446.272 261.831 446.18 261.901C445.997 262.042 445.725 262.246 445.382 262.496C444.695 262.997 443.728 263.674 442.612 264.377C440.306 265.831 437.645 267.216 435.56 267.605L436.384 272.028Z" fill="#4E5052"/>
<path d="M376.051 302.265C375.258 303.221 375.391 304.64 376.347 305.433C377.304 306.226 378.722 306.093 379.515 305.137L376.051 302.265ZM402.861 297.78L403.142 300.013L402.861 297.78ZM438.145 289.576C439.367 289.799 440.539 288.989 440.762 287.766C440.985 286.544 440.175 285.372 438.953 285.149L438.145 289.576ZM377.783 303.701C379.515 305.137 379.515 305.137 379.515 305.137C379.515 305.137 379.515 305.137 379.515 305.138C379.514 305.138 379.514 305.138 379.514 305.138C379.514 305.138 379.514 305.138 379.515 305.137C379.516 305.136 379.518 305.133 379.522 305.129C379.529 305.12 379.542 305.105 379.559 305.085C379.594 305.044 379.648 304.981 379.72 304.899C379.864 304.734 380.081 304.492 380.358 304.195C380.916 303.599 381.712 302.793 382.662 301.953C384.634 300.209 386.991 298.572 389.122 298.069L388.088 293.689C384.826 294.459 381.772 296.733 379.681 298.582C378.6 299.538 377.702 300.448 377.073 301.12C376.758 301.457 376.508 301.736 376.334 301.934C376.247 302.034 376.18 302.113 376.132 302.169C376.108 302.197 376.089 302.219 376.076 302.235C376.069 302.243 376.064 302.249 376.059 302.254C376.057 302.257 376.056 302.259 376.054 302.261C376.054 302.262 376.053 302.262 376.052 302.263C376.052 302.263 376.052 302.264 376.052 302.264C376.051 302.264 376.051 302.265 377.783 303.701ZM389.122 298.069C391.174 297.585 392.823 298.034 394.99 298.748C397.101 299.443 399.791 300.435 403.142 300.013L402.58 295.548C400.398 295.823 398.674 295.223 396.397 294.473C394.176 293.742 391.464 292.892 388.088 293.689L389.122 298.069ZM403.142 300.013C407.101 299.514 409.589 297.487 411.909 295.638C414.225 293.792 416.612 291.896 420.696 290.609L419.344 286.317C414.418 287.869 411.486 290.221 409.104 292.119C406.728 294.013 405.14 295.226 402.58 295.548L403.142 300.013ZM420.696 290.609C424.881 289.29 429.244 289.021 432.612 289.098C434.285 289.136 435.687 289.258 436.664 289.37C437.152 289.426 437.533 289.48 437.786 289.518C437.913 289.537 438.008 289.553 438.068 289.563C438.099 289.568 438.12 289.571 438.133 289.574C438.14 289.575 438.144 289.576 438.146 289.576C438.147 289.576 438.147 289.576 438.147 289.576C438.147 289.576 438.147 289.576 438.146 289.576C438.146 289.576 438.146 289.576 438.146 289.576C438.145 289.576 438.145 289.576 438.549 287.362C438.953 285.149 438.952 285.149 438.952 285.149C438.952 285.149 438.951 285.149 438.951 285.148C438.95 285.148 438.949 285.148 438.947 285.148C438.945 285.147 438.942 285.147 438.938 285.146C438.931 285.145 438.921 285.143 438.909 285.141C438.886 285.137 438.853 285.131 438.811 285.124C438.728 285.11 438.609 285.091 438.458 285.068C438.156 285.023 437.722 284.962 437.177 284.9C436.088 284.775 434.547 284.64 432.714 284.599C429.069 284.516 424.168 284.797 419.344 286.317L420.696 290.609Z" fill="#4E5052"/>
<path d="M397.223 396.654L400.66 302.476C400.709 301.13 399.642 300.039 398.333 300.01L384.352 299.705L383.936 299.696L383.729 299.691L383.626 299.689L383.522 299.687L383.419 299.685L383.316 299.682L383.109 299.678L382.697 299.669L382.492 299.664L382.389 299.662L382.287 299.66L382.184 299.658L382.082 299.655L381.877 299.651L381.469 299.642L381.265 299.638L381.163 299.635L381.061 299.633L380.655 299.624L380.452 299.62L380.351 299.618L380.25 299.616L379.846 299.607L379.644 299.602L379.543 299.6L379.443 299.598L379.04 299.589L378.84 299.585L378.74 299.583L378.639 299.58L378.239 299.572L378.04 299.567L377.94 299.565L377.84 299.563L377.442 299.554L377.343 299.552L377.244 299.55L377.045 299.546L376.649 299.537L376.55 299.535L376.451 299.533L376.254 299.528L375.86 299.52L375.466 299.511L375.368 299.509L375.27 299.507L375.074 299.503L374.682 299.494L374.292 299.485L374.097 299.481L373.999 299.479L373.902 299.477L373.125 299.46L371.581 299.426L348.052 298.913L324.649 298.402L323.113 298.369L322.34 298.352L322.243 298.35L322.146 298.348L321.952 298.343L321.564 298.335L321.174 298.326L320.979 298.322L320.882 298.32L320.784 298.318L320.393 298.309L320 298.301L319.804 298.297L319.706 298.294L319.607 298.292L319.213 298.284L319.016 298.279L318.917 298.277L318.818 298.275L318.422 298.266L318.323 298.264L318.224 298.262L318.025 298.258L317.627 298.249L317.528 298.247L317.428 298.245L317.228 298.24L316.828 298.232L316.728 298.229L316.628 298.227L316.427 298.223L316.025 298.214L315.925 298.212L315.824 298.21L315.622 298.205L315.218 298.196L315.117 298.194L315.016 298.192L314.813 298.188L314.407 298.179L314.203 298.174L314.101 298.172L313.999 298.17L313.897 298.168L313.795 298.165L313.591 298.161L313.181 298.152L312.976 298.148L312.873 298.145L312.77 298.143L312.668 298.141L312.565 298.139L312.358 298.134L311.945 298.125L298.043 297.822C296.763 297.794 295.664 298.792 295.612 300.107L291.899 394.278C291.86 395.272 292.531 396.59 294.031 396.739C295.969 396.931 323.061 399.588 345.844 400.085C368.611 400.581 393.198 399.056 395.007 398.941C396.481 398.848 397.188 397.602 397.223 396.654Z" fill="#F0F0EF" stroke="#4E5052" stroke-width="4.5" stroke-linejoin="round"/>
<path d="M306.907 319.903C305.798 320.462 305.352 321.815 305.911 322.925C306.47 324.034 307.823 324.48 308.933 323.921L306.907 319.903ZM321.861 318.059L321.728 320.305L321.861 318.059ZM336.27 324.47L336.547 322.237L336.27 324.47ZM355.634 319.766L355.846 322.006L355.634 319.766ZM372.28 325.256L372.124 327.501L372.28 325.256ZM386.289 324.133C387.424 323.628 387.936 322.299 387.431 321.163C386.926 320.028 385.596 319.517 384.46 320.022L386.289 324.133ZM307.92 321.912C308.933 323.921 308.933 323.921 308.933 323.921C308.932 323.921 308.932 323.921 308.932 323.921C308.932 323.921 308.932 323.921 308.932 323.921C308.932 323.921 308.933 323.921 308.934 323.92C308.937 323.919 308.941 323.917 308.947 323.914C308.96 323.907 308.98 323.897 309.008 323.884C309.063 323.857 309.147 323.816 309.258 323.762C309.481 323.656 309.81 323.502 310.223 323.317C311.053 322.946 312.215 322.456 313.541 321.976C316.28 320.987 319.396 320.167 321.728 320.305L321.993 315.813C318.687 315.618 314.833 316.725 312.011 317.744C310.557 318.27 309.291 318.805 308.387 319.209C307.935 319.411 307.571 319.581 307.317 319.703C307.19 319.763 307.091 319.812 307.022 319.846C306.987 319.863 306.96 319.876 306.941 319.886C306.931 319.89 306.924 319.894 306.918 319.897C306.915 319.899 306.913 319.9 306.911 319.901C306.91 319.901 306.909 319.901 306.909 319.902C306.908 319.902 306.908 319.902 306.908 319.902C306.907 319.902 306.907 319.903 307.92 321.912ZM321.728 320.305C324.105 320.445 325.715 321.494 327.781 322.954C329.798 324.379 332.298 326.244 335.993 326.703L336.547 322.237C334.13 321.937 332.5 320.778 330.378 319.279C328.303 317.813 325.765 316.036 321.993 315.813L321.728 320.305ZM335.993 326.703C338.411 327.003 340.322 326.913 342.012 326.537C343.686 326.165 345.031 325.533 346.257 324.927C348.61 323.763 350.931 322.472 355.846 322.006L355.421 317.526C349.644 318.074 346.706 319.684 344.261 320.893C343.088 321.474 342.149 321.897 341.035 322.145C339.935 322.389 338.552 322.486 336.547 322.237L335.993 326.703ZM355.846 322.006C358.585 321.746 360.474 322.674 362.828 324.031C365.152 325.371 368.027 327.216 372.124 327.501L372.436 323.011C369.555 322.811 367.588 321.581 365.075 320.132C362.591 318.7 359.645 317.125 355.421 317.526L355.846 322.006ZM372.124 327.501C375.154 327.711 378.778 326.794 381.441 325.944C382.815 325.506 384.018 325.057 384.878 324.717C385.309 324.547 385.656 324.404 385.898 324.302C386.019 324.251 386.114 324.21 386.18 324.181C386.213 324.167 386.239 324.156 386.257 324.148C386.266 324.144 386.273 324.14 386.279 324.138C386.281 324.137 386.284 324.136 386.285 324.135C386.286 324.135 386.287 324.134 386.288 324.134C386.288 324.134 386.288 324.134 386.288 324.134C386.289 324.134 386.289 324.133 385.375 322.078C384.46 320.022 384.461 320.022 384.461 320.022C384.461 320.022 384.461 320.021 384.461 320.021C384.461 320.021 384.461 320.021 384.461 320.021C384.461 320.021 384.46 320.022 384.459 320.022C384.457 320.023 384.453 320.025 384.447 320.028C384.434 320.033 384.415 320.042 384.389 320.053C384.336 320.076 384.255 320.111 384.148 320.156C383.935 320.246 383.621 320.376 383.226 320.532C382.435 320.844 381.329 321.256 380.073 321.657C377.475 322.486 374.552 323.158 372.436 323.011L372.124 327.501Z" fill="#4E5052"/>
<path d="M306.134 341.629C305.126 342.356 304.899 343.763 305.626 344.77C306.353 345.778 307.759 346.006 308.767 345.279L306.134 341.629ZM333.211 344.016L332.923 346.248L333.211 344.016ZM369.425 344.928C370.552 345.451 371.89 344.961 372.413 343.834C372.936 342.706 372.446 341.369 371.318 340.846L369.425 344.928ZM307.45 343.454C308.767 345.279 308.766 345.279 308.766 345.279C308.766 345.279 308.766 345.28 308.766 345.28C308.765 345.28 308.765 345.28 308.765 345.28C308.765 345.28 308.765 345.28 308.766 345.279C308.768 345.278 308.771 345.276 308.775 345.273C308.785 345.266 308.8 345.255 308.822 345.24C308.866 345.209 308.934 345.162 309.024 345.1C309.205 344.977 309.476 344.797 309.819 344.579C310.508 344.142 311.481 343.562 312.612 342.987C314.958 341.794 317.651 340.8 319.84 340.848L319.938 336.349C316.587 336.276 313.06 337.71 310.572 338.975C309.286 339.629 308.188 340.285 307.411 340.778C307.021 341.025 306.709 341.233 306.491 341.381C306.382 341.455 306.297 341.514 306.236 341.557C306.206 341.578 306.183 341.595 306.165 341.607C306.157 341.613 306.15 341.618 306.145 341.622C306.142 341.624 306.14 341.625 306.138 341.626C306.137 341.627 306.136 341.628 306.136 341.628C306.135 341.628 306.135 341.629 306.135 341.629C306.134 341.629 306.134 341.629 307.45 343.454ZM319.84 340.848C321.947 340.894 323.431 341.743 325.349 342.977C327.218 344.18 329.573 345.815 332.923 346.248L333.499 341.785C331.319 341.503 329.8 340.49 327.784 339.193C325.818 337.928 323.406 336.425 319.938 336.349L319.84 340.848ZM332.923 346.248C336.881 346.759 339.797 345.421 342.508 344.213C345.213 343.007 347.999 341.77 352.275 341.55L352.043 337.056C346.886 337.322 343.457 338.863 340.676 340.102C337.9 341.34 336.059 342.115 333.499 341.785L332.923 346.248ZM352.275 341.55C356.657 341.323 360.948 342.158 364.189 343.077C365.799 343.534 367.125 344.004 368.043 344.358C368.502 344.535 368.856 344.682 369.092 344.782C369.21 344.833 369.298 344.871 369.354 344.896C369.382 344.909 369.402 344.918 369.414 344.923C369.42 344.926 369.424 344.928 369.426 344.929C369.427 344.929 369.427 344.929 369.427 344.929C369.427 344.929 369.427 344.929 369.426 344.929C369.426 344.929 369.426 344.929 369.426 344.929C369.425 344.929 369.425 344.928 370.372 342.887C371.318 340.846 371.318 340.846 371.317 340.845C371.317 340.845 371.316 340.845 371.316 340.845C371.315 340.845 371.314 340.844 371.313 340.844C371.311 340.842 371.308 340.841 371.304 340.84C371.298 340.837 371.289 340.832 371.278 340.827C371.256 340.818 371.226 340.804 371.187 340.787C371.11 340.752 371 340.704 370.86 340.644C370.578 340.524 370.174 340.357 369.662 340.159C368.639 339.765 367.181 339.248 365.417 338.748C361.909 337.753 357.094 336.795 352.043 337.056L352.275 341.55Z" fill="#4E5052"/>
<path d="M552.524 355.121C551.931 356.961 549.959 357.972 548.119 357.379C546.279 356.786 545.269 354.814 545.861 352.974L552.524 355.121ZM642.59 290.295L643.142 286.839C644.305 287.024 645.297 287.783 645.781 288.857C646.265 289.932 646.176 291.178 645.544 292.172L642.59 290.295ZM632.201 313.169C631.164 314.8 629.001 315.282 627.37 314.245C625.738 313.209 625.256 311.046 626.293 309.414L632.201 313.169ZM610.16 288.664C608.251 288.36 606.951 286.565 607.255 284.656C607.56 282.748 609.354 281.447 611.263 281.752L610.16 288.664ZM538.007 331.754C537.152 333.488 535.054 334.2 533.32 333.345C531.586 332.49 530.874 330.392 531.729 328.658L538.007 331.754ZM673.651 244.146L674.202 240.69C675.461 240.891 676.511 241.76 676.943 242.959C677.376 244.158 677.122 245.497 676.281 246.455L673.651 244.146ZM654.298 271.498C653.023 272.95 650.812 273.094 649.359 271.819C647.906 270.544 647.763 268.333 649.038 266.88L654.298 271.498ZM641.221 242.516C639.312 242.211 638.012 240.417 638.316 238.508C638.621 236.599 640.415 235.299 642.324 235.603L641.221 242.516ZM534.56 289.461C533.447 291.042 531.263 291.42 529.683 290.307C528.103 289.194 527.724 287.01 528.837 285.43L534.56 289.461ZM605.519 238.128L606.14 234.683C607.37 234.905 608.388 235.765 608.812 236.941C609.236 238.116 609.001 239.429 608.195 240.384L605.519 238.128ZM590.587 261.271C589.341 262.749 587.133 262.937 585.655 261.691C584.178 260.445 583.989 258.237 585.235 256.759L590.587 261.271ZM577.285 236.595C575.383 236.252 574.119 234.432 574.462 232.53C574.805 230.627 576.625 229.363 578.527 229.706L577.285 236.595ZM545.861 352.974C548.094 346.044 555.679 335.132 570.623 323.265C585.672 311.315 608.426 298.198 641.465 286.981L643.715 293.609C611.312 304.611 589.299 317.373 574.976 328.747C560.549 340.203 554.156 350.057 552.524 355.121L545.861 352.974ZM645.544 292.172L632.201 313.169L626.293 309.414L639.636 288.418L645.544 292.172ZM642.039 293.751L610.16 288.664L611.263 281.752L643.142 286.839L642.039 293.751ZM531.729 328.658C541.318 309.211 582.703 265.958 672.708 240.776L674.594 247.517C585.77 272.369 546.428 314.676 538.007 331.754L531.729 328.658ZM676.281 246.455L654.298 271.498L649.038 266.88L671.021 241.837L676.281 246.455ZM673.099 247.603L641.221 242.516L642.324 235.603L674.202 240.69L673.099 247.603ZM528.837 285.43C536.653 274.335 562.36 249.356 604.375 234.82L606.664 241.436C566.001 255.504 541.509 279.596 534.56 289.461L528.837 285.43ZM608.195 240.384L590.587 261.271L585.235 256.759L602.844 235.872L608.195 240.384ZM604.899 241.572L577.285 236.595L578.527 229.706L606.14 234.683L604.899 241.572Z" fill="#4E5052"/>
<path d="M702 235.663V49.0962C702 46.2817 704.282 44 707.096 44H919.387C922.202 44 924.484 46.2817 924.484 49.0962V235.663C924.484 238.477 922.202 240.759 919.387 240.759H707.096C704.282 240.759 702 238.477 702 235.663Z" stroke="#4E5052" stroke-width="4.5" stroke-linejoin="round"/>
<circle cx="720.076" cy="63.4675" r="5.56209" fill="#4E5052"/>
<circle cx="738.154" cy="63.4675" r="5.56209" fill="#4E5052"/>
<circle cx="756.231" cy="63.4675" r="5.56209" fill="#4E5052"/>
<path d="M727.727 136.24V94.288C727.727 91.4735 730.008 89.1918 732.823 89.1918H791.809C794.624 89.1918 796.905 91.4735 796.905 94.288V136.24C796.905 139.055 794.624 141.336 791.809 141.336H732.823C730.008 141.336 727.727 139.055 727.727 136.24Z" fill="#F7F7F5" stroke="#4E5052" stroke-width="4.5"/>
<path d="M730.507 91.2778L794.819 139.251" stroke="#4E5052" stroke-width="4.5"/>
<path d="M794.819 91.2778L730.507 139.251" stroke="#4E5052" stroke-width="4.5"/>
<path d="M827.844 210.633V168.681C827.844 165.867 830.125 163.585 832.94 163.585H891.926C894.741 163.585 897.022 165.867 897.022 168.681V210.633C897.022 213.448 894.741 215.729 891.926 215.729H832.94C830.125 215.729 827.844 213.448 827.844 210.633Z" fill="#F7F7F5" stroke="#4E5052" stroke-width="4.5"/>
<path d="M830.624 165.671L894.936 213.644" stroke="#4E5052" stroke-width="4.5"/>
<path d="M894.936 165.671L830.624 213.644" stroke="#4E5052" stroke-width="4.5"/>
<line x1="826.401" y1="96.4588" x2="896.293" y2="96.4588" stroke="#4E5052" stroke-width="4.5" stroke-linecap="round"/>
<line x1="826.401" y1="116.89" x2="873.35" y2="116.89" stroke="#4E5052" stroke-width="4.5" stroke-linecap="round"/>
<line x1="826.401" y1="137.435" x2="887.255" y2="137.435" stroke="#4E5052" stroke-width="4.5" stroke-linecap="round"/>
<line x1="727.194" y1="171.764" x2="797.087" y2="171.764" stroke="#4E5052" stroke-width="4.5" stroke-linecap="round"/>
<line x1="727.194" y1="192.029" x2="774.143" y2="192.029" stroke="#4E5052" stroke-width="4.5" stroke-linecap="round"/>
<line x1="727.194" y1="212.575" x2="788.049" y2="212.575" stroke="#4E5052" stroke-width="4.5" stroke-linecap="round"/>
<path d="M939 564.663V378.096C939 375.282 941.282 373 944.096 373H1156.39C1159.2 373 1161.48 375.282 1161.48 378.096V564.663C1161.48 567.477 1159.2 569.759 1156.39 569.759H944.096C941.282 569.759 939 567.477 939 564.663Z" stroke="#4E5052" stroke-width="4.5" stroke-linejoin="round"/>
<mask id="path-47-inside-2_620_8133" fill="white">
<rect x="971" y="417" width="77" height="21" rx="4"/>
</mask>
<rect x="971" y="417" width="77" height="21" rx="4" fill="#F7F7F5" stroke="#4E5052" stroke-width="9" stroke-linejoin="round" mask="url(#path-47-inside-2_620_8133)"/>
<mask id="path-48-inside-3_620_8133" fill="white">
<rect x="1056" y="417" width="75" height="21" rx="4"/>
</mask>
<rect x="1056" y="417" width="75" height="21" rx="4" fill="#F7F7F5" stroke="#4E5052" stroke-width="9" stroke-linejoin="round" mask="url(#path-48-inside-3_620_8133)"/>
<line x1="975.25" y1="409.75" x2="1021.75" y2="409.75" stroke="#4E5052" stroke-width="4.5" stroke-linecap="round"/>
<line x1="1000.25" y1="511.75" x2="1058.75" y2="511.75" stroke="#4E5052" stroke-width="4.5" stroke-linecap="round"/>
<path d="M991.75 511.5C991.75 516.519 987.476 520.75 982 520.75C976.524 520.75 972.25 516.519 972.25 511.5C972.25 506.481 976.524 502.25 982 502.25C987.476 502.25 991.75 506.481 991.75 511.5Z" fill="#F7F7F5" stroke="#4E5052" stroke-width="4.5"/>
<line x1="975.25" y1="448.75" x2="1021.75" y2="448.75" stroke="#4E5052" stroke-width="4.5" stroke-linecap="round"/>
<line x1="1058.25" y1="409.75" x2="1104.75" y2="409.75" stroke="#4E5052" stroke-width="4.5" stroke-linecap="round"/>
<mask id="path-54-inside-4_620_8133" fill="white">
<rect x="971" y="454" width="160" height="39" rx="4"/>
</mask>
<rect x="971" y="454" width="160" height="39" rx="4" fill="#F7F7F5" stroke="#4E5052" stroke-width="9" stroke-linejoin="round" mask="url(#path-54-inside-4_620_8133)"/>
<mask id="path-55-inside-5_620_8133" fill="white">
<rect x="1076" y="529" width="55" height="19" rx="4"/>
</mask>
<rect x="1076" y="529" width="55" height="19" rx="4" fill="#323537" stroke="#4E5052" stroke-width="9" stroke-linejoin="round" mask="url(#path-55-inside-5_620_8133)"/>
<path d="M756 496.9V313.1C756 304.761 762.761 298 771.1 298H846.9C855.239 298 862 304.761 862 313.1V496.9C862 505.239 855.239 512 846.9 512H771.1C762.761 512 756 505.239 756 496.9Z" stroke="#4E5052" stroke-width="4.5" stroke-linejoin="round"/>
<rect x="795" y="309" width="28" height="4" rx="2" fill="#4E5052"/>
<path d="M773.727 389.24V347.288C773.727 344.473 776.008 342.192 778.823 342.192H837.809C840.624 342.192 842.905 344.473 842.905 347.288V389.24C842.905 392.055 840.624 394.336 837.809 394.336H778.823C776.008 394.336 773.727 392.055 773.727 389.24Z" fill="#F7F7F5" stroke="#4E5052" stroke-width="4.5"/>
<path d="M776.507 344.278L840.819 392.251" stroke="#4E5052" stroke-width="4.5"/>
<path d="M840.819 344.278L776.507 392.251" stroke="#4E5052" stroke-width="4.5"/>
<line x1="773.194" y1="424.764" x2="843.087" y2="424.763" stroke="#4E5052" stroke-width="4.5" stroke-linecap="round"/>
<line x1="773.194" y1="445.029" x2="820.143" y2="445.029" stroke="#4E5052" stroke-width="4.5" stroke-linecap="round"/>
<line x1="773.194" y1="465.575" x2="834.049" y2="465.575" stroke="#4E5052" stroke-width="4.5" stroke-linecap="round"/>
<rect x="392" y="469.098" width="115.726" height="63.8834" rx="7.48" transform="rotate(-6.82052 392 469.098)" fill="#F9E9B2" stroke="#323537" stroke-width="4.5" stroke-linejoin="round"/>
<path d="M445.726 513.665L445.261 509.776C445.014 507.714 443.958 505.833 442.326 504.549C440.693 503.265 438.617 502.683 436.554 502.929L421 504.79C418.937 505.036 417.057 506.092 415.773 507.725C414.489 509.358 413.906 511.434 414.153 513.497L414.618 517.385" fill="#F9E9B2"/>
<path d="M445.726 513.665L445.261 509.776C445.014 507.714 443.958 505.833 442.326 504.549C440.693 503.265 438.617 502.683 436.554 502.929L421 504.79C418.937 505.036 417.057 506.092 415.773 507.725C414.489 509.358 413.906 511.434 414.153 513.497L414.618 517.385" stroke="#323537" stroke-width="4.5" stroke-linecap="round" stroke-linejoin="round"/>
<path d="M427.847 496.082C432.142 495.568 435.207 491.67 434.694 487.375C434.18 483.08 430.282 480.014 425.986 480.528C421.691 481.042 418.626 484.94 419.14 489.235C419.653 493.53 423.552 496.596 427.847 496.082Z" fill="#F9E9B2" stroke="#323537" stroke-width="4.5" stroke-linecap="round" stroke-linejoin="round"/>
<line x1="457.071" y1="481.618" x2="491.458" y2="477.505" stroke="#323537" stroke-width="4.5" stroke-linecap="round"/>
<line x1="458.568" y1="494.135" x2="482.66" y2="491.253" stroke="#323537" stroke-width="4.5" stroke-linecap="round"/>
<line x1="460.065" y1="506.652" x2="489.803" y2="503.095" stroke="#323537" stroke-width="4.5" stroke-linecap="round"/>
<rect x="460.347" y="517.117" width="115.726" height="63.8834" rx="7.48" fill="#F7F7F5" stroke="#323537" stroke-width="4.5" stroke-linejoin="round"/>
<path d="M508.4 567.749V563.832C508.4 561.755 507.575 559.763 506.106 558.294C504.637 556.825 502.645 556 500.568 556H484.903C482.826 556 480.833 556.825 479.365 558.294C477.896 559.763 477.07 561.755 477.07 563.832V567.749" fill="#F7F7F5"/>
<path d="M508.4 567.749V563.832C508.4 561.755 507.575 559.763 506.106 558.294C504.637 556.825 502.645 556 500.568 556H484.903C482.826 556 480.833 556.825 479.365 558.294C477.896 559.763 477.07 561.755 477.07 563.832V567.749" stroke="#323537" stroke-width="4.5" stroke-linecap="round" stroke-linejoin="round"/>
<path d="M492.736 548.167C497.061 548.167 500.568 544.66 500.568 540.335C500.568 536.009 497.061 532.502 492.736 532.502C488.41 532.502 484.903 536.009 484.903 540.335C484.903 544.66 488.41 548.167 492.736 548.167Z" fill="#F7F7F5" stroke="#323537" stroke-width="4.5" stroke-linecap="round" stroke-linejoin="round"/>
<line x1="523.47" y1="537.276" x2="558.103" y2="537.276" stroke="#323537" stroke-width="4.5" stroke-linecap="round"/>
<line x1="523.47" y1="549.882" x2="547.735" y2="549.882" stroke="#323537" stroke-width="4.5" stroke-linecap="round"/>
<line x1="523.47" y1="562.488" x2="553.42" y2="562.488" stroke="#323537" stroke-width="4.5" stroke-linecap="round"/>
<path d="M376.494 175.335L367.959 58.2789C367.609 53.4867 371.211 49.3187 376.003 48.9692L474.083 41.8175C478.876 41.4681 483.044 45.0697 483.393 49.8618L491.928 166.918C492.278 171.71 488.676 175.878 483.884 176.228L385.804 183.379C381.011 183.729 376.843 180.127 376.494 175.335Z" fill="#F0F0EF" stroke="#4E5052" stroke-width="4.5" stroke-linejoin="round"/>
<path d="M401.283 57.459L400.937 52.7151C400.478 46.4243 402.579 40.2059 406.777 35.4279C410.975 30.6499 416.926 27.7037 423.322 27.2373C429.718 26.771 436.033 28.8227 440.88 32.9412C445.727 37.0597 448.707 42.9076 449.166 49.1984L449.512 53.9423L401.283 57.459Z" fill="#F9E9B2" stroke="#4E5052" stroke-width="4.5" stroke-linecap="round" stroke-linejoin="round"/>
<circle cx="399.281" cy="87.2509" r="9.51151" transform="rotate(-4.17042 399.281 87.2509)" fill="#4E5052" stroke="#4E5052" stroke-width="4.5"/>
<rect x="416.352" y="80.0191" width="45.9604" height="4.34271" rx="2.17136" transform="rotate(-4.17042 416.352 80.0191)" fill="#4E5052"/>
<rect x="418.457" y="108.894" width="45.9604" height="4.34271" rx="2.17136" transform="rotate(-4.17042 418.457 108.894)" fill="#4E5052"/>
<rect x="420.563" y="137.769" width="45.9604" height="4.34271" rx="2.17136" transform="rotate(-4.17042 420.563 137.769)" fill="#4E5052"/>
<rect x="417.036" y="89.4034" width="31.4847" height="4.34271" rx="2.17136" transform="rotate(-4.17042 417.036 89.4034)" fill="#4E5052"/>
<rect x="419.142" y="118.278" width="31.4847" height="4.34271" rx="2.17136" transform="rotate(-4.17042 419.142 118.278)" fill="#4E5052"/>
<rect x="421.247" y="147.153" width="31.4847" height="4.34271" rx="2.17136" transform="rotate(-4.17042 421.247 147.153)" fill="#4E5052"/>
<path d="M403.698 83.7954L397.465 91.0828L394.182 88.2163" stroke="#F7F7F5" stroke-width="4.5" stroke-linecap="round" stroke-linejoin="round"/>
<circle cx="401.439" cy="116.848" r="9.51151" transform="rotate(-4.17042 401.439 116.848)" fill="#F9E9B2" stroke="#4E5052" stroke-width="4.5"/>
<circle cx="403.597" cy="146.444" r="11.7615" transform="rotate(-4.17042 403.597 146.444)" fill="#4E5052"/>
<path fill-rule="evenodd" clip-rule="evenodd" d="M398.361 145.266C397.425 144.449 397.329 143.027 398.146 142.091C398.963 141.155 400.385 141.059 401.321 141.876L403.22 143.534L404.86 141.618C405.667 140.673 407.088 140.563 408.032 141.37C408.976 142.178 409.087 143.598 408.279 144.543L406.611 146.494L408.545 148.182C409.481 148.999 409.577 150.42 408.76 151.357C407.943 152.293 406.522 152.389 405.585 151.572L403.686 149.914L402.047 151.83C401.239 152.774 399.819 152.885 398.874 152.077C397.93 151.27 397.819 149.849 398.627 148.905L400.295 146.954L398.361 145.266Z" fill="#F7F7F5"/>
<path d="M220.424 250.676C219.726 249.62 218.68 248.941 217.516 248.788L150.929 240.032C141.67 238.814 133.181 245.301 131.963 254.56L119.544 349.001C119.368 350.341 119.661 351.687 120.359 352.743C121.057 353.799 122.103 354.478 123.267 354.631L202.232 365.015C203.396 365.168 204.582 364.782 205.529 363.943C206.477 363.103 207.108 361.879 207.284 360.539L221.239 254.418C221.415 253.078 221.122 251.732 220.424 250.676Z" fill="#F9E9B2"/>
<path d="M220.424 250.676L218.547 251.917L218.547 251.917L220.424 250.676ZM205.529 363.943L204.037 362.259L204.037 362.259L205.529 363.943ZM120.359 352.743L122.236 351.502L122.236 351.502L120.359 352.743ZM119.544 349.001L117.313 348.707L117.313 348.707L119.544 349.001ZM131.963 254.56L129.732 254.267L131.963 254.56ZM217.223 251.019C217.685 251.08 218.176 251.357 218.547 251.917L222.301 249.435C221.275 247.884 219.675 246.803 217.81 246.557L217.223 251.019ZM218.547 251.917C218.925 252.489 219.119 253.283 219.008 254.125L223.47 254.712C223.711 252.874 223.319 250.975 222.301 249.435L218.547 251.917ZM219.008 254.125L205.053 360.245L209.515 360.832L223.47 254.712L219.008 254.125ZM205.053 360.245C204.942 361.088 204.55 361.805 204.037 362.259L207.021 365.627C208.403 364.402 209.273 362.67 209.515 360.832L205.053 360.245ZM204.037 362.259C203.534 362.705 202.988 362.845 202.526 362.784L201.939 367.246C203.804 367.491 205.63 366.86 207.021 365.627L204.037 362.259ZM202.526 362.784L123.56 352.4L122.973 356.862L201.939 367.246L202.526 362.784ZM123.56 352.4C123.098 352.339 122.607 352.062 122.236 351.502L118.482 353.984C119.508 355.535 121.108 356.617 122.973 356.862L123.56 352.4ZM122.236 351.502C121.858 350.931 121.664 350.137 121.775 349.294L117.313 348.707C117.072 350.545 117.464 352.444 118.482 353.984L122.236 351.502ZM121.775 349.294L134.194 254.853L129.732 254.267L117.313 348.707L121.775 349.294ZM150.636 242.263L217.223 251.019L217.81 246.557L151.222 237.801L150.636 242.263ZM134.194 254.853C135.249 246.832 142.603 241.206 150.636 242.263L151.222 237.801C140.737 236.422 131.113 243.769 129.732 254.267L134.194 254.853Z" fill="#4E5052"/>
<path d="M46.391 227.791C47.3491 226.953 48.5494 226.569 49.728 226.724L117.398 235.622C126.657 236.84 133.181 245.301 131.963 254.56L119.544 349.001C119.368 350.341 118.731 351.565 117.773 352.403C116.815 353.241 115.614 353.625 114.436 353.47L34.4441 342.951C33.2655 342.796 32.2052 342.115 31.4964 341.057C30.7876 340 30.4884 338.653 30.6647 337.313L44.6195 231.193C44.7958 229.853 45.433 228.629 46.391 227.791Z" fill="#F9E9B2"/>
<path d="M46.391 227.791L47.8725 229.484L47.8725 229.484L46.391 227.791ZM31.4964 341.057L33.3653 339.805L33.3653 339.805L31.4964 341.057ZM117.773 352.403L116.291 350.709L116.291 350.709L117.773 352.403ZM119.544 349.001L121.775 349.294L121.775 349.294L119.544 349.001ZM131.963 254.56L134.194 254.853L131.963 254.56ZM49.4347 228.955C48.947 228.891 48.3826 229.038 47.8725 229.484L44.9096 226.097C46.3155 224.867 48.1518 224.247 50.0214 224.493L49.4347 228.955ZM47.8725 229.484C47.3531 229.939 46.9601 230.652 46.8503 231.486L42.3887 230.899C42.6315 229.054 43.513 227.319 44.9096 226.097L47.8725 229.484ZM46.8503 231.486L32.8955 337.606L28.4339 337.02L42.3887 230.899L46.8503 231.486ZM32.8955 337.606C32.7857 338.441 32.981 339.231 33.3653 339.805L29.6275 342.31C28.5942 340.769 28.1911 338.866 28.4339 337.02L32.8955 337.606ZM33.3653 339.805C33.7427 340.368 34.2497 340.656 34.7374 340.72L34.1507 345.182C32.2812 344.936 30.6676 343.862 29.6275 342.31L33.3653 339.805ZM34.7374 340.72L114.729 351.239L114.142 355.7L34.1507 345.182L34.7374 340.72ZM114.729 351.239C115.217 351.303 115.781 351.156 116.291 350.709L119.254 354.096C117.848 355.326 116.012 355.946 114.142 355.7L114.729 351.239ZM116.291 350.709C116.811 350.255 117.204 349.542 117.313 348.707L121.775 349.294C121.532 351.14 120.651 352.875 119.254 354.096L116.291 350.709ZM117.313 348.707L129.732 254.267L134.194 254.853L121.775 349.294L117.313 348.707ZM117.104 237.853L49.4347 228.955L50.0214 224.493L117.691 233.392L117.104 237.853ZM129.732 254.267C130.787 246.245 125.138 238.91 117.104 237.853L117.691 233.392C128.177 234.771 135.574 244.356 134.194 254.853L129.732 254.267Z" fill="#4E5052"/>
<line x1="147.936" y1="282.577" x2="202.727" y2="289.782" stroke="#4E5052" stroke-width="4.5" stroke-linecap="round"/>
<line x1="2.25" y1="-2.25" x2="54.0652" y2="-2.25" transform="matrix(-0.991464 -0.130378 -0.130378 0.991464 111.377 278.88)" stroke="#4E5052" stroke-width="4.5" stroke-linecap="round"/>
<line x1="145.988" y1="297.39" x2="196.221" y2="303.996" stroke="#4E5052" stroke-width="4.5" stroke-linecap="round"/>
<line x1="93.8307" y1="289.274" x2="56.1316" y2="284.317" stroke="#4E5052" stroke-width="4.5" stroke-linecap="round"/>
<line x1="98.7197" y1="304.987" x2="54.1837" y2="299.13" stroke="#4E5052" stroke-width="4.5" stroke-linecap="round"/>
<line x1="172.786" y1="314.726" x2="144.202" y2="310.968" stroke="#4E5052" stroke-width="4.5" stroke-linecap="round"/>
<path d="M162.469 313.419L162.751 305.068C162.825 302.888 163.872 300.857 165.603 299.532L216.59 260.502L225.31 253.827C228.498 251.387 233.059 251.987 235.507 255.168L236.604 256.593C239.062 259.786 238.459 264.368 235.259 266.817L226.57 273.469L175.177 312.809C173.683 313.953 171.803 314.474 169.933 314.263L162.469 313.419Z" fill="#F6F6F5"/>
<path d="M226.57 273.469L235.259 266.817C238.459 264.368 239.062 259.786 236.604 256.593L235.507 255.168C233.059 251.987 228.498 251.387 225.31 253.827L216.59 260.502M226.57 273.469L175.177 312.809C173.683 313.953 171.803 314.474 169.933 314.263L162.469 313.419L162.751 305.068C162.825 302.889 163.872 300.857 165.603 299.532L216.59 260.502M226.57 273.469L216.59 260.502" stroke="#4E5052" stroke-width="4.5" stroke-linejoin="round"/>
<rect x="999.798" y="123.798" width="120.662" height="169.889" stroke="#4E5052" stroke-width="4.5"/>
<line x1="1025.4" y1="164.459" x2="1095.29" y2="164.459" stroke="#4E5052" stroke-width="4.5" stroke-linecap="round"/>
<line x1="1025.4" y1="184.89" x2="1072.35" y2="184.89" stroke="#4E5052" stroke-width="4.5" stroke-linecap="round"/>
<line x1="1025.4" y1="205.435" x2="1086.26" y2="205.435" stroke="#4E5052" stroke-width="4.5" stroke-linecap="round"/>
<rect x="993.25" y="117.25" width="14.39" height="14.39" fill="#F0F0EF" stroke="#4E5052" stroke-width="4.5"/>
<rect x="1114.62" y="117.25" width="14.39" height="14.39" fill="#F0F0EF" stroke="#4E5052" stroke-width="4.5"/>
<rect x="993.25" y="286.85" width="14.39" height="14.39" fill="#F0F0EF" stroke="#4E5052" stroke-width="4.5"/>
<rect x="1114.62" y="286.85" width="14.39" height="14.39" fill="#F0F0EF" stroke="#4E5052" stroke-width="4.5"/>
<path d="M1055.13 234.543L1032.63 255.945C1031.44 257.078 1032.32 259.069 1033.96 258.948L1042.66 258.306C1044.79 258.149 1046.85 259.087 1048.13 260.793L1053.32 267.744C1054.3 269.056 1056.39 268.419 1056.48 266.783L1058.09 235.888C1058.17 234.311 1056.28 233.45 1055.13 234.543Z" fill="#F7F7F5" stroke="#4E5052" stroke-width="4.5"/>
<path d="M890.309 375.543L912.809 396.945C914 398.078 913.116 400.069 911.476 399.948L902.785 399.306C900.651 399.149 898.588 400.087 897.314 401.793L892.123 408.744C891.144 410.056 889.049 409.419 888.964 407.783L887.349 376.888C887.266 375.311 889.16 374.45 890.309 375.543Z" fill="#F7F7F5" stroke="#4E5052" stroke-width="4.5"/>
</g>
<defs>
<clipPath id="clip0_620_8133">
<rect width="1200" height="620" fill="white"/>
</clipPath>
</defs>
</svg>
