<svg width="1760" height="860" viewBox="0 0 1760 860" fill="none" xmlns="http://www.w3.org/2000/svg">
<g clip-path="url(#clip0_68_60)">
<rect width="1760" height="860" fill="black"/>
<mask id="path-1-inside-1_68_60" fill="white">
<path d="M40 874C40 651.218 128.5 437.561 286.03 280.03C443.561 122.5 657.218 34 880 34C1102.78 34 1316.44 122.5 1473.97 280.03C1631.5 437.561 1720 651.218 1720 874L880 874L40 874Z"/>
</mask>
<path d="M40 874C40 651.218 128.5 437.561 286.03 280.03C443.561 122.5 657.218 34 880 34C1102.78 34 1316.44 122.5 1473.97 280.03C1631.5 437.561 1720 651.218 1720 874L880 874L40 874Z" stroke="#87CEFA" stroke-width="24" stroke-miterlimit="16" stroke-linecap="round" stroke-linejoin="round" stroke-dasharray="32 48" mask="url(#path-1-inside-1_68_60)"/>
<mask id="path-2-inside-2_68_60" fill="white">
<path d="M160 874C160 683.044 235.857 499.909 370.883 364.883C505.909 229.857 689.044 154 880 154C1070.96 154 1254.09 229.857 1389.12 364.883C1524.14 499.909 1600 683.044 1600 874L880 874L160 874Z"/>
</mask>
<path d="M160 874C160 683.044 235.857 499.909 370.883 364.883C505.909 229.857 689.044 154 880 154C1070.96 154 1254.09 229.857 1389.12 364.883C1524.14 499.909 1600 683.044 1600 874L880 874L160 874Z" stroke="#87CEFA" stroke-width="20" stroke-miterlimit="16" stroke-linecap="round" stroke-linejoin="round" stroke-dasharray="32 48" mask="url(#path-2-inside-2_68_60)"/>
<mask id="path-3-inside-3_68_60" fill="white">
<path d="M280 874C280 714.87 343.214 562.258 455.736 449.736C568.258 337.214 720.87 274 880 274C1039.13 274 1191.74 337.214 1304.26 449.736C1416.79 562.258 1480 714.87 1480 874L880 874H280Z"/>
</mask>
<path d="M280 874C280 714.87 343.214 562.258 455.736 449.736C568.258 337.214 720.87 274 880 274C1039.13 274 1191.74 337.214 1304.26 449.736C1416.79 562.258 1480 714.87 1480 874L880 874H280Z" stroke="#87CEFA" stroke-width="16" stroke-miterlimit="16" stroke-linecap="round" stroke-linejoin="round" stroke-dasharray="32 48" mask="url(#path-3-inside-3_68_60)"/>
<mask id="path-4-inside-4_68_60" fill="white">
<path d="M400 874C400 746.696 450.571 624.606 540.589 534.589C630.606 444.571 752.696 394 880 394C1007.3 394 1129.39 444.571 1219.41 534.589C1309.43 624.606 1360 746.696 1360 874L880 874L400 874Z"/>
</mask>
<path d="M400 874C400 746.696 450.571 624.606 540.589 534.589C630.606 444.571 752.696 394 880 394C1007.3 394 1129.39 444.571 1219.41 534.589C1309.43 624.606 1360 746.696 1360 874L880 874L400 874Z" stroke="#87CEFA" stroke-width="8" stroke-miterlimit="16" stroke-linecap="round" stroke-linejoin="round" stroke-dasharray="32 48" mask="url(#path-4-inside-4_68_60)"/>
<mask id="path-5-inside-5_68_60" fill="white">
<path d="M520 874C520 778.522 557.928 686.955 625.442 619.442C692.955 551.928 784.522 514 880 514C975.478 514 1067.05 551.928 1134.56 619.442C1202.07 686.955 1240 778.522 1240 874L880 874L520 874Z"/>
</mask>
<path d="M520 874C520 778.522 557.928 686.955 625.442 619.442C692.955 551.928 784.522 514 880 514C975.478 514 1067.05 551.928 1134.56 619.442C1202.07 686.955 1240 778.522 1240 874L880 874L520 874Z" stroke="#87CEFA" stroke-width="16" mask="url(#path-5-inside-5_68_60)"/>
<mask id="path-6-inside-6_68_60" fill="white">
<path d="M600 874C600 799.739 629.5 728.52 682.01 676.01C734.52 623.5 805.739 594 880 594C954.261 594 1025.48 623.5 1077.99 676.01C1130.5 728.52 1160 799.739 1160 874L880 874H600Z"/>
</mask>
<path d="M600 874C600 799.739 629.5 728.52 682.01 676.01C734.52 623.5 805.739 594 880 594C954.261 594 1025.48 623.5 1077.99 676.01C1130.5 728.52 1160 799.739 1160 874L880 874H600Z" stroke="#87CEFA" stroke-width="16" mask="url(#path-6-inside-6_68_60)"/>
<mask id="path-7-inside-7_68_60" fill="white">
<path d="M640 874C640 810.348 665.286 749.303 710.294 704.294C755.303 659.286 816.348 634 880 634C943.652 634 1004.7 659.286 1049.71 704.294C1094.71 749.303 1120 810.348 1120 874L880 874H640Z"/>
</mask>
<path d="M640 874C640 810.348 665.286 749.303 710.294 704.294C755.303 659.286 816.348 634 880 634C943.652 634 1004.7 659.286 1049.71 704.294C1094.71 749.303 1120 810.348 1120 874L880 874H640Z" stroke="#87CEFA" stroke-width="16" mask="url(#path-7-inside-7_68_60)"/>
<mask id="path-8-inside-8_68_60" fill="white">
<path d="M720 874C720 831.565 736.857 790.869 766.863 760.863C796.869 730.857 837.565 714 880 714C922.435 714 963.131 730.857 993.137 760.863C1023.14 790.869 1040 831.565 1040 874L880 874H720Z"/>
</mask>
<path d="M720 874C720 831.565 736.857 790.869 766.863 760.863C796.869 730.857 837.565 714 880 714C922.435 714 963.131 730.857 993.137 760.863C1023.14 790.869 1040 831.565 1040 874L880 874H720Z" stroke="#87CEFA" stroke-width="16" mask="url(#path-8-inside-8_68_60)"/>
<mask id="path-9-inside-9_68_60" fill="white">
<path d="M760 874C760 842.174 772.643 811.652 795.147 789.147C817.652 766.643 848.174 754 880 754C911.826 754 942.348 766.643 964.853 789.147C987.357 811.652 1000 842.174 1000 874L880 874H760Z"/>
</mask>
<path d="M760 874C760 842.174 772.643 811.652 795.147 789.147C817.652 766.643 848.174 754 880 754C911.826 754 942.348 766.643 964.853 789.147C987.357 811.652 1000 842.174 1000 874L880 874H760Z" stroke="#87CEFA" stroke-width="16" mask="url(#path-9-inside-9_68_60)"/>
</g>
<defs>
<clipPath id="clip0_68_60">
<rect width="1760" height="860" fill="white"/>
</clipPath>
</defs>
</svg>
