<svg width="746" height="158" viewBox="0 0 746 158" fill="none" xmlns="http://www.w3.org/2000/svg">
<mask id="path-1-inside-1_66_30" fill="white">
<path d="M61.36 127.92C52.5067 127.92 44.3467 126.533 36.88 123.76C29.52 120.88 23.0667 116.827 17.52 111.6C12.08 106.373 7.81333 100.24 4.72 93.2C1.73333 86.16 0.24 78.4267 0.24 70C0.24 61.5733 1.73333 53.84 4.72 46.8C7.81333 39.76 12.1333 33.6267 17.68 28.4C23.2267 23.1733 29.7333 19.1733 37.2 16.4C44.6667 13.52 52.88 12.08 61.84 12.08C71.76 12.08 80.6667 13.7333 88.56 17.04C96.56 20.3467 103.28 25.1467 108.72 31.44L92.08 46.8C88.0267 42.5333 83.6 39.3867 78.8 37.36C74 35.2267 68.7733 34.16 63.12 34.16C57.68 34.16 52.72 35.0133 48.24 36.72C43.76 38.4267 39.8667 40.88 36.56 44.08C33.36 47.28 30.8533 51.0667 29.04 55.44C27.3333 59.8133 26.48 64.6667 26.48 70C26.48 75.2267 27.3333 80.0267 29.04 84.4C30.8533 88.7733 33.36 92.6133 36.56 95.92C39.8667 99.12 43.7067 101.573 48.08 103.28C52.56 104.987 57.4667 105.84 62.8 105.84C67.92 105.84 72.88 105.04 77.68 103.44C82.5867 101.733 87.3333 98.9067 91.92 94.96L106.64 113.68C100.56 118.267 93.4667 121.787 85.36 124.24C77.36 126.693 69.36 127.92 61.36 127.92ZM82.96 110.32V68.24H106.64V113.68L82.96 110.32ZM128.958 126V39.92H152.798V64.24L149.438 57.2C151.998 51.12 156.104 46.5333 161.758 43.44C167.411 40.24 174.291 38.64 182.398 38.64V61.68C181.331 61.5733 180.371 61.52 179.518 61.52C178.664 61.4133 177.758 61.36 176.798 61.36C169.971 61.36 164.424 63.3333 160.158 67.28C155.998 71.12 153.918 77.1467 153.918 85.36V126H128.958ZM244.414 126V109.2L242.814 105.52V75.44C242.814 70.1067 241.16 65.9467 237.854 62.96C234.654 59.9733 229.694 58.48 222.974 58.48C218.387 58.48 213.854 59.2267 209.374 60.72C205 62.1067 201.267 64.0267 198.174 66.48L189.214 49.04C193.907 45.7333 199.56 43.1733 206.174 41.36C212.787 39.5467 219.507 38.64 226.334 38.64C239.454 38.64 249.64 41.7333 256.894 47.92C264.147 54.1067 267.774 63.76 267.774 76.88V126H244.414ZM218.174 127.28C211.454 127.28 205.694 126.16 200.894 123.92C196.094 121.573 192.414 118.427 189.854 114.48C187.294 110.533 186.014 106.107 186.014 101.2C186.014 96.08 187.24 91.6 189.694 87.76C192.254 83.92 196.254 80.9333 201.694 78.8C207.134 76.56 214.227 75.44 222.974 75.44H245.854V90H225.694C219.827 90 215.774 90.96 213.534 92.88C211.4 94.8 210.334 97.2 210.334 100.08C210.334 103.28 211.56 105.84 214.014 107.76C216.574 109.573 220.04 110.48 224.414 110.48C228.574 110.48 232.307 109.52 235.614 107.6C238.92 105.573 241.32 102.64 242.814 98.8L246.654 110.32C244.84 115.867 241.534 120.08 236.734 122.96C231.934 125.84 225.747 127.28 218.174 127.28ZM341.244 127.28C333.99 127.28 327.644 125.68 322.204 122.48C316.764 119.28 312.497 114.427 309.404 107.92C306.417 101.307 304.924 92.9867 304.924 82.96C304.924 72.8267 306.364 64.5067 309.244 58C312.124 51.4933 316.284 46.64 321.724 43.44C327.164 40.24 333.67 38.64 341.244 38.64C349.35 38.64 356.604 40.5067 363.004 44.24C369.51 47.8667 374.63 52.9867 378.364 59.6C382.204 66.2133 384.124 74 384.124 82.96C384.124 92.0267 382.204 99.8667 378.364 106.48C374.63 113.093 369.51 118.213 363.004 121.84C356.604 125.467 349.35 127.28 341.244 127.28ZM290.364 157.04V39.92H314.204V57.52L313.724 83.12L315.324 108.56V157.04H290.364ZM336.924 106.8C341.084 106.8 344.764 105.84 347.964 103.92C351.27 102 353.884 99.28 355.804 95.76C357.83 92.1333 358.844 87.8667 358.844 82.96C358.844 77.9467 357.83 73.68 355.804 70.16C353.884 66.64 351.27 63.92 347.964 62C344.764 60.08 341.084 59.12 336.924 59.12C332.764 59.12 329.03 60.08 325.724 62C322.417 63.92 319.804 66.64 317.884 70.16C315.964 73.68 315.004 77.9467 315.004 82.96C315.004 87.8667 315.964 92.1333 317.884 95.76C319.804 99.28 322.417 102 325.724 103.92C329.03 105.84 332.764 106.8 336.924 106.8ZM453.153 38.64C459.979 38.64 466.059 40.0267 471.393 42.8C476.833 45.4667 481.099 49.6267 484.193 55.28C487.286 60.8267 488.833 67.9733 488.833 76.72V126H463.873V80.56C463.873 73.6267 462.326 68.5067 459.233 65.2C456.246 61.8933 451.979 60.24 446.433 60.24C442.486 60.24 438.913 61.0933 435.713 62.8C432.619 64.4 430.166 66.9067 428.353 70.32C426.646 73.7333 425.793 78.1067 425.793 83.44V126H400.833V7.27999H425.793V63.76L420.193 56.56C423.286 50.8 427.713 46.3733 433.473 43.28C439.233 40.1867 445.793 38.64 453.153 38.64ZM511.458 126V39.92H536.418V126H511.458ZM523.938 27.92C519.351 27.92 515.618 26.5867 512.738 23.92C509.858 21.2533 508.418 17.9467 508.418 14C508.418 10.0533 509.858 6.74666 512.738 4.08C515.618 1.41333 519.351 0.0799904 523.938 0.0799904C528.524 0.0799904 532.258 1.35999 535.138 3.92C538.018 6.37333 539.458 9.57333 539.458 13.52C539.458 17.68 538.018 21.1467 535.138 23.92C532.364 26.5867 528.631 27.92 523.938 27.92ZM580.223 108.4L580.863 78L621.023 39.92H650.783L612.223 79.12L599.263 89.68L580.223 108.4ZM559.583 126V7.27999H584.543V126H559.583ZM623.743 126L594.623 89.84L610.303 70.48L653.983 126H623.743ZM651.203 126L689.763 75.44L689.283 89.2L652.323 39.92H680.323L703.683 72.08L693.123 72.4L717.283 39.92H743.843L706.723 88.72V75.28L745.123 126H716.803L692.323 91.76L702.723 93.2L678.403 126H651.203Z"/>
</mask>
<path d="M61.36 127.92C52.5067 127.92 44.3467 126.533 36.88 123.76C29.52 120.88 23.0667 116.827 17.52 111.6C12.08 106.373 7.81333 100.24 4.72 93.2C1.73333 86.16 0.24 78.4267 0.24 70C0.24 61.5733 1.73333 53.84 4.72 46.8C7.81333 39.76 12.1333 33.6267 17.68 28.4C23.2267 23.1733 29.7333 19.1733 37.2 16.4C44.6667 13.52 52.88 12.08 61.84 12.08C71.76 12.08 80.6667 13.7333 88.56 17.04C96.56 20.3467 103.28 25.1467 108.72 31.44L92.08 46.8C88.0267 42.5333 83.6 39.3867 78.8 37.36C74 35.2267 68.7733 34.16 63.12 34.16C57.68 34.16 52.72 35.0133 48.24 36.72C43.76 38.4267 39.8667 40.88 36.56 44.08C33.36 47.28 30.8533 51.0667 29.04 55.44C27.3333 59.8133 26.48 64.6667 26.48 70C26.48 75.2267 27.3333 80.0267 29.04 84.4C30.8533 88.7733 33.36 92.6133 36.56 95.92C39.8667 99.12 43.7067 101.573 48.08 103.28C52.56 104.987 57.4667 105.84 62.8 105.84C67.92 105.84 72.88 105.04 77.68 103.44C82.5867 101.733 87.3333 98.9067 91.92 94.96L106.64 113.68C100.56 118.267 93.4667 121.787 85.36 124.24C77.36 126.693 69.36 127.92 61.36 127.92ZM82.96 110.32V68.24H106.64V113.68L82.96 110.32ZM128.958 126V39.92H152.798V64.24L149.438 57.2C151.998 51.12 156.104 46.5333 161.758 43.44C167.411 40.24 174.291 38.64 182.398 38.64V61.68C181.331 61.5733 180.371 61.52 179.518 61.52C178.664 61.4133 177.758 61.36 176.798 61.36C169.971 61.36 164.424 63.3333 160.158 67.28C155.998 71.12 153.918 77.1467 153.918 85.36V126H128.958ZM244.414 126V109.2L242.814 105.52V75.44C242.814 70.1067 241.16 65.9467 237.854 62.96C234.654 59.9733 229.694 58.48 222.974 58.48C218.387 58.48 213.854 59.2267 209.374 60.72C205 62.1067 201.267 64.0267 198.174 66.48L189.214 49.04C193.907 45.7333 199.56 43.1733 206.174 41.36C212.787 39.5467 219.507 38.64 226.334 38.64C239.454 38.64 249.64 41.7333 256.894 47.92C264.147 54.1067 267.774 63.76 267.774 76.88V126H244.414ZM218.174 127.28C211.454 127.28 205.694 126.16 200.894 123.92C196.094 121.573 192.414 118.427 189.854 114.48C187.294 110.533 186.014 106.107 186.014 101.2C186.014 96.08 187.24 91.6 189.694 87.76C192.254 83.92 196.254 80.9333 201.694 78.8C207.134 76.56 214.227 75.44 222.974 75.44H245.854V90H225.694C219.827 90 215.774 90.96 213.534 92.88C211.4 94.8 210.334 97.2 210.334 100.08C210.334 103.28 211.56 105.84 214.014 107.76C216.574 109.573 220.04 110.48 224.414 110.48C228.574 110.48 232.307 109.52 235.614 107.6C238.92 105.573 241.32 102.64 242.814 98.8L246.654 110.32C244.84 115.867 241.534 120.08 236.734 122.96C231.934 125.84 225.747 127.28 218.174 127.28ZM341.244 127.28C333.99 127.28 327.644 125.68 322.204 122.48C316.764 119.28 312.497 114.427 309.404 107.92C306.417 101.307 304.924 92.9867 304.924 82.96C304.924 72.8267 306.364 64.5067 309.244 58C312.124 51.4933 316.284 46.64 321.724 43.44C327.164 40.24 333.67 38.64 341.244 38.64C349.35 38.64 356.604 40.5067 363.004 44.24C369.51 47.8667 374.63 52.9867 378.364 59.6C382.204 66.2133 384.124 74 384.124 82.96C384.124 92.0267 382.204 99.8667 378.364 106.48C374.63 113.093 369.51 118.213 363.004 121.84C356.604 125.467 349.35 127.28 341.244 127.28ZM290.364 157.04V39.92H314.204V57.52L313.724 83.12L315.324 108.56V157.04H290.364ZM336.924 106.8C341.084 106.8 344.764 105.84 347.964 103.92C351.27 102 353.884 99.28 355.804 95.76C357.83 92.1333 358.844 87.8667 358.844 82.96C358.844 77.9467 357.83 73.68 355.804 70.16C353.884 66.64 351.27 63.92 347.964 62C344.764 60.08 341.084 59.12 336.924 59.12C332.764 59.12 329.03 60.08 325.724 62C322.417 63.92 319.804 66.64 317.884 70.16C315.964 73.68 315.004 77.9467 315.004 82.96C315.004 87.8667 315.964 92.1333 317.884 95.76C319.804 99.28 322.417 102 325.724 103.92C329.03 105.84 332.764 106.8 336.924 106.8ZM453.153 38.64C459.979 38.64 466.059 40.0267 471.393 42.8C476.833 45.4667 481.099 49.6267 484.193 55.28C487.286 60.8267 488.833 67.9733 488.833 76.72V126H463.873V80.56C463.873 73.6267 462.326 68.5067 459.233 65.2C456.246 61.8933 451.979 60.24 446.433 60.24C442.486 60.24 438.913 61.0933 435.713 62.8C432.619 64.4 430.166 66.9067 428.353 70.32C426.646 73.7333 425.793 78.1067 425.793 83.44V126H400.833V7.27999H425.793V63.76L420.193 56.56C423.286 50.8 427.713 46.3733 433.473 43.28C439.233 40.1867 445.793 38.64 453.153 38.64ZM511.458 126V39.92H536.418V126H511.458ZM523.938 27.92C519.351 27.92 515.618 26.5867 512.738 23.92C509.858 21.2533 508.418 17.9467 508.418 14C508.418 10.0533 509.858 6.74666 512.738 4.08C515.618 1.41333 519.351 0.0799904 523.938 0.0799904C528.524 0.0799904 532.258 1.35999 535.138 3.92C538.018 6.37333 539.458 9.57333 539.458 13.52C539.458 17.68 538.018 21.1467 535.138 23.92C532.364 26.5867 528.631 27.92 523.938 27.92ZM580.223 108.4L580.863 78L621.023 39.92H650.783L612.223 79.12L599.263 89.68L580.223 108.4ZM559.583 126V7.27999H584.543V126H559.583ZM623.743 126L594.623 89.84L610.303 70.48L653.983 126H623.743ZM651.203 126L689.763 75.44L689.283 89.2L652.323 39.92H680.323L703.683 72.08L693.123 72.4L717.283 39.92H743.843L706.723 88.72V75.28L745.123 126H716.803L692.323 91.76L702.723 93.2L678.403 126H651.203Z" fill="url(#paint0_linear_66_30)"/>
<path d="M36.88 123.76L36.297 125.25L36.3099 125.255L36.3229 125.26L36.88 123.76ZM17.52 111.6L16.4115 112.754L16.4171 112.759L16.4227 112.764L17.52 111.6ZM4.72 93.2L3.24707 93.8249L3.25106 93.8343L3.25517 93.8436L4.72 93.2ZM4.72 46.8L3.25517 46.1564L3.25106 46.1657L3.24707 46.1751L4.72 46.8ZM17.68 28.4L18.7773 29.5645L18.7773 29.5645L17.68 28.4ZM37.2 16.4L37.7571 17.8999L37.7665 17.8964L37.7758 17.8928L37.2 16.4ZM88.56 17.04L87.9418 18.5157L87.9488 18.5187L88.56 17.04ZM108.72 31.44L109.805 32.6157L110.943 31.5653L109.93 30.3937L108.72 31.44ZM92.08 46.8L90.92 47.902L92.0063 49.0455L93.1653 47.9757L92.08 46.8ZM78.8 37.36L78.1502 38.8221L78.1639 38.8282L78.1777 38.834L78.8 37.36ZM36.56 44.08L35.4473 42.9302L35.4379 42.9394L35.4286 42.9486L36.56 44.08ZM29.04 55.44L27.562 54.8272L27.5556 54.8427L27.5495 54.8583L29.04 55.44ZM29.04 84.4L27.5495 84.9817L27.5556 84.9973L27.562 85.0128L29.04 84.4ZM36.56 95.92L35.4102 97.0327L35.4285 97.0515L35.4473 97.0698L36.56 95.92ZM48.08 103.28L47.4983 104.771L47.5104 104.775L48.08 103.28ZM77.68 103.44L78.186 104.958L78.1958 104.955L78.2056 104.951L77.68 103.44ZM91.92 94.96L93.1777 93.971L92.1441 92.6564L90.8764 93.7472L91.92 94.96ZM106.64 113.68L107.604 114.957L108.907 113.974L107.898 112.691L106.64 113.68ZM85.36 124.24L84.8966 122.709L84.8909 122.71L85.36 124.24ZM82.96 110.32H81.36V111.709L82.7352 111.904L82.96 110.32ZM82.96 68.24V66.64H81.36V68.24H82.96ZM106.64 68.24H108.24V66.64H106.64V68.24ZM106.64 113.68L106.415 115.264L108.24 115.523V113.68H106.64ZM61.36 126.32C52.6757 126.32 44.7067 124.96 37.4371 122.26L36.3229 125.26C43.9866 128.106 52.3376 129.52 61.36 129.52V126.32ZM37.463 122.27C30.2865 119.462 24.0094 115.517 18.6173 110.436L16.4227 112.764C22.1239 118.137 28.7535 122.298 36.297 125.25L37.463 122.27ZM18.6285 110.446C13.3425 105.367 9.19559 99.4084 6.18483 92.5564L3.25517 93.8436C6.43108 101.072 10.8175 107.379 16.4115 112.754L18.6285 110.446ZM6.19293 92.5751C3.2983 85.7521 1.84 78.2339 1.84 70H-1.36C-1.36 78.6194 0.168369 86.5679 3.24707 93.8249L6.19293 92.5751ZM1.84 70C1.84 61.7661 3.2983 54.2479 6.19293 47.4249L3.24707 46.1751C0.168369 53.4321 -1.36 61.3806 -1.36 70H1.84ZM6.18483 47.4436C9.19262 40.5983 13.3883 34.6426 18.7773 29.5645L16.5827 27.2355C10.8784 32.6107 6.43405 38.9217 3.25517 46.1564L6.18483 47.4436ZM18.7773 29.5645C24.1611 24.4912 30.4819 20.6021 37.7571 17.8999L36.6429 14.9001C28.9848 17.7446 22.2922 21.8554 16.5827 27.2355L18.7773 29.5645ZM37.7758 17.8928C45.0381 15.0916 53.0535 13.68 61.84 13.68V10.48C52.7065 10.48 44.2952 11.9484 36.6242 14.9072L37.7758 17.8928ZM61.84 13.68C71.5812 13.68 80.2729 15.3031 87.9418 18.5157L89.1782 15.5643C81.0605 12.1636 71.9389 10.48 61.84 10.48V13.68ZM87.9488 18.5187C95.7277 21.7339 102.24 26.3896 107.51 32.4863L109.93 30.3937C104.32 23.9037 97.3923 18.9594 89.1712 15.5613L87.9488 18.5187ZM107.635 30.2643L90.9948 45.6243L93.1653 47.9757L109.805 32.6157L107.635 30.2643ZM93.24 45.698C89.0546 41.2923 84.45 38.0088 79.4224 35.886L78.1777 38.834C82.75 40.7646 86.9987 43.7743 90.92 47.902L93.24 45.698ZM79.4498 35.8979C74.43 33.6669 68.9799 32.56 63.12 32.56V35.76C68.5668 35.76 73.57 36.7865 78.1502 38.8221L79.4498 35.8979ZM63.12 32.56C57.5113 32.56 52.3551 33.4402 47.6704 35.2248L48.8096 38.2152C53.0849 36.5865 57.8487 35.76 63.12 35.76V32.56ZM47.6704 35.2248C42.9965 37.0053 38.9163 39.5732 35.4473 42.9302L37.6727 45.2298C40.8171 42.1868 44.5235 39.848 48.8096 38.2152L47.6704 35.2248ZM35.4286 42.9486C32.0734 46.3039 29.452 50.269 27.562 54.8272L30.518 56.0528C32.2547 51.8643 34.6466 48.2561 37.6914 45.2114L35.4286 42.9486ZM27.5495 54.8583C25.7613 59.4405 24.88 64.4945 24.88 70H28.08C28.08 64.8388 28.9054 60.1861 30.5305 56.0217L27.5495 54.8583ZM24.88 70C24.88 75.4032 25.7627 80.4031 27.5495 84.9817L30.5305 83.8183C28.904 79.6503 28.08 75.0502 28.08 70H24.88ZM27.562 85.0128C29.4501 89.5664 32.0663 93.5773 35.4102 97.0327L37.7098 94.8073C34.6537 91.6494 32.2566 87.9802 30.518 83.7872L27.562 85.0128ZM35.4473 97.0698C38.9098 100.42 42.9312 102.988 47.4983 104.771L48.6617 101.789C44.4821 100.158 40.8236 97.8195 37.6727 94.7702L35.4473 97.0698ZM47.5104 104.775C52.1917 106.559 57.2938 107.44 62.8 107.44V104.24C57.6395 104.24 52.9284 103.415 48.6496 101.785L47.5104 104.775ZM62.8 107.44C68.0899 107.44 73.2209 106.613 78.186 104.958L77.174 101.922C72.5392 103.467 67.7501 104.24 62.8 104.24V107.44ZM78.2056 104.951C83.3307 103.169 88.2493 100.229 92.9636 96.1728L90.8764 93.7472C86.4174 97.584 81.8426 100.298 77.1544 101.929L78.2056 104.951ZM90.6623 95.949L105.382 114.669L107.898 112.691L93.1777 93.971L90.6623 95.949ZM105.676 112.403C99.7628 116.864 92.843 120.304 84.8966 122.709L85.8235 125.771C94.0904 123.27 101.357 119.669 107.604 114.957L105.676 112.403ZM84.8909 122.71C77.0359 125.119 69.1938 126.32 61.36 126.32V129.52C69.5262 129.52 77.6841 128.267 85.8291 125.77L84.8909 122.71ZM84.56 110.32V68.24H81.36V110.32H84.56ZM82.96 69.84H106.64V66.64H82.96V69.84ZM105.04 68.24V113.68H108.24V68.24H105.04ZM106.865 112.096L83.1848 108.736L82.7352 111.904L106.415 115.264L106.865 112.096ZM128.958 126H127.358V127.6H128.958V126ZM128.958 39.92V38.32H127.358V39.92H128.958ZM152.798 39.92H154.398V38.32H152.798V39.92ZM152.798 64.24L151.354 64.9292L154.398 64.24H152.798ZM149.438 57.2L147.963 56.5791L147.684 57.241L147.994 57.8892L149.438 57.2ZM161.758 43.44L162.526 44.8436L162.536 44.8381L162.546 44.8324L161.758 43.44ZM182.398 38.64H183.998V37.04H182.398V38.64ZM182.398 61.68L182.238 63.2721L183.998 63.448V61.68H182.398ZM179.518 61.52L179.319 63.1076L179.418 63.12H179.518V61.52ZM160.158 67.28L161.243 68.4557L161.244 68.4546L160.158 67.28ZM153.918 126V127.6H155.518V126H153.918ZM130.558 126V39.92H127.358V126H130.558ZM128.958 41.52H152.798V38.32H128.958V41.52ZM151.198 39.92V64.24H154.398V39.92H151.198ZM154.241 63.5508L150.881 56.5108L147.994 57.8892L151.354 64.9292L154.241 63.5508ZM150.912 57.8209C153.335 52.0656 157.197 47.759 162.526 44.8436L160.989 42.0364C155.011 45.3077 150.66 50.1744 147.963 56.5791L150.912 57.8209ZM162.546 44.8324C167.906 41.7983 174.499 40.24 182.398 40.24V37.04C174.082 37.04 166.916 38.6817 160.969 42.0476L162.546 44.8324ZM180.798 38.64V61.68H183.998V38.64H180.798ZM182.557 60.0879C181.45 59.9773 180.435 59.92 179.518 59.92V63.12C180.306 63.12 181.212 63.1694 182.238 63.2721L182.557 60.0879ZM179.716 59.9324C178.79 59.8166 177.816 59.76 176.798 59.76V62.96C177.699 62.96 178.539 63.0101 179.319 63.1076L179.716 59.9324ZM176.798 59.76C169.643 59.76 163.684 61.8383 159.071 66.1054L161.244 68.4546C165.164 64.8283 170.299 62.96 176.798 62.96V59.76ZM159.072 66.1043C154.459 70.3624 152.318 76.9042 152.318 85.36H155.518C155.518 77.3891 157.536 71.8776 161.243 68.4557L159.072 66.1043ZM152.318 85.36V126H155.518V85.36H152.318ZM153.918 124.4H128.958V127.6H153.918V124.4ZM244.414 126H242.814V127.6H244.414V126ZM244.414 109.2H246.014V108.867L245.881 108.562L244.414 109.2ZM242.814 105.52H241.214V105.853L241.346 106.158L242.814 105.52ZM237.854 62.96L236.762 64.1297L236.772 64.1386L236.781 64.1474L237.854 62.96ZM209.374 60.72L209.857 62.2452L209.869 62.2416L209.88 62.2379L209.374 60.72ZM198.174 66.48L196.751 67.2112L197.641 68.9445L199.168 67.7336L198.174 66.48ZM189.214 49.04L188.292 47.732L187.155 48.5335L187.791 49.7712L189.214 49.04ZM206.174 41.36L205.751 39.8169L205.751 39.8169L206.174 41.36ZM256.894 47.92L257.932 46.7027L257.932 46.7027L256.894 47.92ZM267.774 126V127.6H269.374V126H267.774ZM200.894 123.92L200.191 125.357L200.204 125.364L200.217 125.37L200.894 123.92ZM189.854 114.48L191.196 113.609L191.196 113.609L189.854 114.48ZM189.694 87.76L188.362 86.8725L188.354 86.8854L188.345 86.8986L189.694 87.76ZM201.694 78.8L202.278 80.2896L202.29 80.2846L202.303 80.2795L201.694 78.8ZM245.854 75.44H247.454V73.84H245.854V75.44ZM245.854 90V91.6H247.454V90H245.854ZM213.534 92.88L212.492 91.6652L212.478 91.6778L212.463 91.6907L213.534 92.88ZM214.014 107.76L213.028 109.02L213.058 109.044L213.089 109.066L214.014 107.76ZM235.614 107.6L236.417 108.984L236.434 108.974L236.45 108.964L235.614 107.6ZM242.814 98.8L244.332 98.294L242.93 94.0878L241.323 98.2201L242.814 98.8ZM246.654 110.32L248.175 110.817L248.339 110.315L248.172 109.814L246.654 110.32ZM236.734 122.96L235.911 121.588L235.911 121.588L236.734 122.96ZM246.014 126V109.2H242.814V126H246.014ZM245.881 108.562L244.281 104.882L241.346 106.158L242.946 109.838L245.881 108.562ZM244.414 105.52V75.44H241.214V105.52H244.414ZM244.414 75.44C244.414 69.7511 242.635 65.1221 238.926 61.7726L236.781 64.1474C239.686 66.7712 241.214 70.4622 241.214 75.44H244.414ZM238.945 61.7903C235.325 58.411 229.889 56.88 222.974 56.88V60.08C229.499 60.08 233.983 61.5356 236.762 64.1297L238.945 61.7903ZM222.974 56.88C218.21 56.88 213.506 57.656 208.868 59.2021L209.88 62.2379C214.201 60.7973 218.564 60.08 222.974 60.08V56.88ZM208.89 59.1948C204.361 60.6309 200.448 62.6344 197.18 65.2264L199.168 67.7336C202.086 65.4189 205.64 63.5824 209.857 62.2452L208.89 59.1948ZM199.597 65.7488L190.637 48.3088L187.791 49.7712L196.751 67.2112L199.597 65.7488ZM190.135 50.348C194.651 47.1664 200.128 44.6767 206.597 42.903L205.751 39.8169C198.993 41.67 193.163 44.3003 188.292 47.732L190.135 50.348ZM206.597 42.903C213.073 41.1273 219.651 40.24 226.334 40.24V37.04C219.363 37.04 212.501 37.966 205.751 39.8169L206.597 42.903ZM226.334 40.24C239.216 40.24 248.984 43.2768 255.855 49.1373L257.932 46.7027C250.296 40.1899 239.691 37.04 226.334 37.04V40.24ZM255.855 49.1373C262.632 54.9177 266.174 64.0437 266.174 76.88H269.374C269.374 63.4763 265.662 53.2956 257.932 46.7027L255.855 49.1373ZM266.174 76.88V126H269.374V76.88H266.174ZM267.774 124.4H244.414V127.6H267.774V124.4ZM218.174 125.68C211.627 125.68 206.11 124.588 201.57 122.47L200.217 125.37C205.278 127.732 211.281 128.88 218.174 128.88V125.68ZM201.596 122.483C197.021 120.246 193.578 117.281 191.196 113.609L188.511 115.351C191.25 119.572 195.167 122.901 200.191 125.357L201.596 122.483ZM191.196 113.609C188.812 109.933 187.614 105.812 187.614 101.2H184.414C184.414 106.402 185.776 111.133 188.511 115.351L191.196 113.609ZM187.614 101.2C187.614 96.3464 188.773 92.1733 191.042 88.6214L188.345 86.8986C185.708 91.0267 184.414 95.8136 184.414 101.2H187.614ZM191.025 88.6475C193.36 85.1445 197.061 82.3353 202.278 80.2896L201.11 77.3104C195.446 79.5314 191.147 82.6955 188.362 86.8725L191.025 88.6475ZM202.303 80.2795C207.48 78.148 214.344 77.04 222.974 77.04V73.84C214.11 73.84 206.788 74.972 201.085 77.3205L202.303 80.2795ZM222.974 77.04H245.854V73.84H222.974V77.04ZM244.254 75.44V90H247.454V75.44H244.254ZM245.854 88.4H225.694V91.6H245.854V88.4ZM225.694 88.4C219.767 88.4 215.198 89.3465 212.492 91.6652L214.575 94.0948C216.35 92.5735 219.887 91.6 225.694 91.6V88.4ZM212.463 91.6907C209.992 93.9154 208.734 96.7482 208.734 100.08H211.934C211.934 97.6518 212.809 95.6846 214.604 94.0693L212.463 91.6907ZM208.734 100.08C208.734 103.756 210.175 106.787 213.028 109.02L215 106.5C212.946 104.893 211.934 102.804 211.934 100.08H208.734ZM213.089 109.066C216.007 111.133 219.836 112.08 224.414 112.08V108.88C220.245 108.88 217.141 108.014 214.939 106.454L213.089 109.066ZM224.414 112.08C228.83 112.08 232.845 111.058 236.417 108.984L234.81 106.216C231.769 107.982 228.317 108.88 224.414 108.88V112.08ZM236.45 108.964C240.074 106.743 242.693 103.524 244.305 99.3799L241.323 98.2201C239.948 101.756 237.767 104.404 234.778 106.236L236.45 108.964ZM241.296 99.306L245.136 110.826L248.172 109.814L244.332 98.294L241.296 99.306ZM245.133 109.823C243.434 115.02 240.365 118.915 235.911 121.588L237.557 124.332C242.702 121.245 246.247 116.713 248.175 110.817L245.133 109.823ZM235.911 121.588C231.432 124.275 225.556 125.68 218.174 125.68V128.88C225.938 128.88 232.435 127.405 237.557 124.332L235.911 121.588ZM322.204 122.48L323.015 121.101L323.015 121.101L322.204 122.48ZM309.404 107.92L307.946 108.579L307.952 108.593L307.959 108.607L309.404 107.92ZM309.244 58L310.707 58.6476L310.707 58.6476L309.244 58ZM321.724 43.44L320.913 42.0609L320.913 42.0609L321.724 43.44ZM363.004 44.24L362.198 45.622L362.211 45.6299L362.225 45.6376L363.004 44.24ZM378.364 59.6L376.97 60.3865L376.975 60.395L376.98 60.4034L378.364 59.6ZM378.364 106.48L376.98 105.677L376.975 105.685L376.97 105.693L378.364 106.48ZM363.004 121.84L362.225 120.442L362.215 120.448L363.004 121.84ZM290.364 157.04H288.764V158.64H290.364V157.04ZM290.364 39.92V38.32H288.764V39.92H290.364ZM314.204 39.92H315.804V38.32H314.204V39.92ZM314.204 57.52L315.803 57.55L315.804 57.535V57.52H314.204ZM313.724 83.12L312.124 83.09L312.123 83.1553L312.127 83.2204L313.724 83.12ZM315.324 108.56H316.924V108.51L316.921 108.46L315.324 108.56ZM315.324 157.04V158.64H316.924V157.04H315.324ZM347.964 103.92L347.16 102.536L347.15 102.542L347.141 102.548L347.964 103.92ZM355.804 95.76L354.407 94.9795L354.403 94.9866L354.399 94.9938L355.804 95.76ZM355.804 70.16L354.399 70.9262L354.408 70.9424L354.417 70.9583L355.804 70.16ZM347.964 62L347.141 63.372L347.15 63.3779L347.16 63.3837L347.964 62ZM325.724 62L326.527 63.3837L326.527 63.3837L325.724 62ZM317.884 70.16L319.288 70.9262L319.288 70.9262L317.884 70.16ZM317.884 95.76L316.47 96.5086L316.474 96.5174L316.479 96.5262L317.884 95.76ZM325.724 103.92L326.527 102.536L326.527 102.536L325.724 103.92ZM341.244 125.68C334.232 125.68 328.174 124.136 323.015 121.101L321.393 123.859C327.113 127.224 333.748 128.88 341.244 128.88V125.68ZM323.015 121.101C317.888 118.085 313.825 113.493 310.849 107.233L307.959 108.607C311.169 115.36 315.639 120.475 321.393 123.859L323.015 121.101ZM310.862 107.261C307.997 100.918 306.524 92.8409 306.524 82.96H303.324C303.324 93.1324 304.837 101.695 307.946 108.579L310.862 107.261ZM306.524 82.96C306.524 72.9621 307.947 64.883 310.707 58.6476L307.781 57.3524C304.781 64.1303 303.324 72.6913 303.324 82.96H306.524ZM310.707 58.6476C313.469 52.4063 317.42 47.8282 322.535 44.8191L320.913 42.0609C315.148 45.4518 310.778 50.5804 307.781 57.3524L310.707 58.6476ZM322.535 44.8191C327.684 41.7902 333.898 40.24 341.244 40.24V37.04C333.442 37.04 326.643 38.6898 320.913 42.0609L322.535 44.8191ZM341.244 40.24C349.095 40.24 356.065 42.0447 362.198 45.622L363.81 42.8579C357.143 38.9687 349.606 37.04 341.244 37.04V40.24ZM362.225 45.6376C368.469 49.118 373.379 54.0242 376.97 60.3865L379.757 58.8134C375.882 51.9491 370.552 46.6153 363.783 42.8424L362.225 45.6376ZM376.98 60.4034C380.656 66.7337 382.524 74.2333 382.524 82.96H385.724C385.724 73.7667 383.752 65.693 379.747 58.7966L376.98 60.4034ZM382.524 82.96C382.524 91.7971 380.654 99.3491 376.98 105.677L379.747 107.283C383.753 100.384 385.724 92.2562 385.724 82.96H382.524ZM376.97 105.693C373.379 112.056 368.469 116.962 362.225 120.442L363.783 123.238C370.552 119.465 375.882 114.131 379.757 107.267L376.97 105.693ZM362.215 120.448C356.079 123.925 349.103 125.68 341.244 125.68V128.88C349.598 128.88 357.128 127.009 363.793 123.232L362.215 120.448ZM291.964 157.04V39.92H288.764V157.04H291.964ZM290.364 41.52H314.204V38.32H290.364V41.52ZM312.604 39.92V57.52H315.804V39.92H312.604ZM312.604 57.49L312.124 83.09L315.323 83.15L315.803 57.55L312.604 57.49ZM312.127 83.2204L313.727 108.66L316.921 108.46L315.321 83.0196L312.127 83.2204ZM313.724 108.56V157.04H316.924V108.56H313.724ZM315.324 155.44H290.364V158.64H315.324V155.44ZM336.924 108.4C341.34 108.4 345.311 107.378 348.787 105.292L347.141 102.548C344.217 104.302 340.828 105.2 336.924 105.2V108.4ZM348.767 105.304C352.34 103.229 355.155 100.29 357.208 96.5262L354.399 94.9938C352.612 98.2699 350.201 100.771 347.16 102.536L348.767 105.304ZM357.2 96.5405C359.383 92.6354 360.444 88.0903 360.444 82.96H357.244C357.244 87.643 356.278 91.6312 354.407 94.9795L357.2 96.5405ZM360.444 82.96C360.444 77.7316 359.386 73.1753 357.19 69.3617L354.417 70.9583C356.275 74.1847 357.244 78.1618 357.244 82.96H360.444ZM357.208 69.3938C355.155 65.6299 352.34 62.6906 348.767 60.6163L347.16 63.3837C350.201 65.1494 352.612 67.65 354.399 70.9262L357.208 69.3938ZM348.787 60.628C345.311 58.5422 341.34 57.52 336.924 57.52V60.72C340.828 60.72 344.217 61.6178 347.141 63.372L348.787 60.628ZM336.924 57.52C332.507 57.52 328.492 58.5423 324.92 60.6163L326.527 63.3837C329.569 61.6177 333.02 60.72 336.924 60.72V57.52ZM324.92 60.6163C321.348 62.6906 318.532 65.6299 316.479 69.3938L319.288 70.9262C321.075 67.65 323.486 65.1494 326.527 63.3837L324.92 60.6163ZM316.479 69.3938C314.403 73.2006 313.404 77.7449 313.404 82.96H316.604C316.604 78.1485 317.525 74.1594 319.288 70.9262L316.479 69.3938ZM313.404 82.96C313.404 88.0768 314.406 92.6102 316.47 96.5086L319.298 95.0114C317.522 91.6564 316.604 87.6565 316.604 82.96H313.404ZM316.479 96.5262C318.532 100.29 321.348 103.229 324.92 105.304L326.527 102.536C323.486 100.771 321.075 98.2699 319.288 94.9938L316.479 96.5262ZM324.92 105.304C328.492 107.378 332.507 108.4 336.924 108.4V105.2C333.02 105.2 329.569 104.302 326.527 102.536L324.92 105.304ZM471.393 42.8L470.654 44.2195L470.671 44.2283L470.688 44.2367L471.393 42.8ZM484.193 55.28L482.789 56.048L482.795 56.0593L484.193 55.28ZM488.833 126V127.6H490.433V126H488.833ZM463.873 126H462.273V127.6H463.873V126ZM459.233 65.2L458.045 66.2725L458.055 66.2828L458.064 66.293L459.233 65.2ZM435.713 62.8L436.448 64.2211L436.457 64.2165L436.465 64.2118L435.713 62.8ZM428.353 70.32L426.94 69.5693L426.93 69.5868L426.921 69.6045L428.353 70.32ZM425.793 126V127.6H427.393V126H425.793ZM400.833 126H399.233V127.6H400.833V126ZM400.833 7.27999V5.67999H399.233V7.27999H400.833ZM425.793 7.27999H427.393V5.67999H425.793V7.27999ZM425.793 63.76L424.53 64.7423L427.393 68.4233V63.76H425.793ZM420.193 56.56L418.783 55.803L418.29 56.7204L418.93 57.5423L420.193 56.56ZM433.473 43.28L434.23 44.6896L434.23 44.6896L433.473 43.28ZM453.153 40.24C459.757 40.24 465.578 41.58 470.654 44.2195L472.131 41.3804C466.54 38.4733 460.201 37.04 453.153 37.04V40.24ZM470.688 44.2367C475.812 46.7485 479.843 50.6649 482.789 56.048L485.596 54.512C482.355 48.5884 477.853 44.1848 472.097 41.3633L470.688 44.2367ZM482.795 56.0593C485.715 61.2947 487.233 68.1481 487.233 76.72H490.433C490.433 67.7986 488.857 60.3587 485.59 54.5007L482.795 56.0593ZM487.233 76.72V126H490.433V76.72H487.233ZM488.833 124.4H463.873V127.6H488.833V124.4ZM465.473 126V80.56H462.273V126H465.473ZM465.473 80.56C465.473 73.43 463.887 67.8339 460.401 64.1069L458.064 66.293C460.764 69.1795 462.273 73.8233 462.273 80.56H465.473ZM460.42 64.1275C457.058 60.4057 452.313 58.64 446.433 58.64V61.84C451.646 61.84 455.433 63.3809 458.045 66.2725L460.42 64.1275ZM446.433 58.64C442.247 58.64 438.411 59.5473 434.96 61.3882L436.465 64.2118C439.414 62.6394 442.725 61.84 446.433 61.84V58.64ZM434.977 61.3788C431.564 63.1445 428.888 65.9017 426.94 69.5693L429.765 71.0706C431.444 67.9116 433.675 65.6555 436.448 64.2211L434.977 61.3788ZM426.921 69.6045C425.069 73.3103 424.193 77.9511 424.193 83.44H427.393C427.393 78.2622 428.223 74.1564 429.784 71.0355L426.921 69.6045ZM424.193 83.44V126H427.393V83.44H424.193ZM425.793 124.4H400.833V127.6H425.793V124.4ZM402.433 126V7.27999H399.233V126H402.433ZM400.833 8.87999H425.793V5.67999H400.833V8.87999ZM424.193 7.27999V63.76H427.393V7.27999H424.193ZM427.055 62.7777L421.455 55.5777L418.93 57.5423L424.53 64.7423L427.055 62.7777ZM421.602 57.317C424.547 51.8339 428.746 47.6342 434.23 44.6896L432.716 41.8704C426.679 45.1124 422.025 49.7661 418.783 55.803L421.602 57.317ZM434.23 44.6896C439.729 41.7363 446.023 40.24 453.153 40.24V37.04C445.562 37.04 438.736 38.6371 432.716 41.8704L434.23 44.6896ZM511.458 126H509.858V127.6H511.458V126ZM511.458 39.92V38.32H509.858V39.92H511.458ZM536.418 39.92H538.018V38.32H536.418V39.92ZM536.418 126V127.6H538.018V126H536.418ZM512.738 23.92L511.65 25.094L511.65 25.094L512.738 23.92ZM512.738 4.08L513.825 5.25401L513.825 5.25401L512.738 4.08ZM535.138 3.92L534.075 5.11585L534.087 5.12705L534.1 5.13799L535.138 3.92ZM535.138 23.92L536.246 25.0733L536.247 25.0725L535.138 23.92ZM513.058 126V39.92H509.858V126H513.058ZM511.458 41.52H536.418V38.32H511.458V41.52ZM534.818 39.92V126H538.018V39.92H534.818ZM536.418 124.4H511.458V127.6H536.418V124.4ZM523.938 26.32C519.681 26.32 516.36 25.0932 513.825 22.746L511.65 25.094C514.875 28.0801 519.02 29.52 523.938 29.52V26.32ZM513.825 22.746C511.274 20.384 510.018 17.5038 510.018 14H506.818C506.818 18.3896 508.441 22.1226 511.65 25.094L513.825 22.746ZM510.018 14C510.018 10.4962 511.274 7.61596 513.825 5.25401L511.65 2.90598C508.441 5.87736 506.818 9.61043 506.818 14H510.018ZM513.825 5.25401C516.36 2.90675 519.681 1.67999 523.938 1.67999V-1.52001C519.02 -1.52001 514.875 -0.0801005 511.65 2.90598L513.825 5.25401ZM523.938 1.67999C528.211 1.67999 531.541 2.86408 534.075 5.11585L536.2 2.72414C532.974 -0.144091 528.837 -1.52001 523.938 -1.52001V1.67999ZM534.1 5.13799C536.606 7.27261 537.858 10.0189 537.858 13.52H541.058C541.058 9.12772 539.429 5.47405 536.175 2.70201L534.1 5.13799ZM537.858 13.52C537.858 17.2649 536.581 20.3092 534.028 22.7675L536.247 25.0725C539.454 21.9841 541.058 18.0951 541.058 13.52H537.858ZM534.029 22.7667C531.616 25.0863 528.314 26.32 523.938 26.32V29.52C528.948 29.52 533.112 28.087 536.246 25.0733L534.029 22.7667ZM580.223 108.4L578.623 108.366L578.54 112.298L581.344 109.541L580.223 108.4ZM580.863 78L579.762 76.839L579.277 77.2985L579.263 77.9663L580.863 78ZM621.023 39.92V38.32H620.385L619.922 38.759L621.023 39.92ZM650.783 39.92L651.923 41.042L654.601 38.32H650.783V39.92ZM612.223 79.12L613.233 80.3604L613.301 80.3048L613.363 80.242L612.223 79.12ZM599.263 89.68L598.252 88.4396L598.194 88.4868L598.141 88.5391L599.263 89.68ZM559.583 126H557.983V127.6H559.583V126ZM559.583 7.27999V5.67999H557.983V7.27999H559.583ZM584.543 7.27999H586.143V5.67999H584.543V7.27999ZM584.543 126V127.6H586.143V126H584.543ZM623.743 126L622.496 127.004L622.977 127.6H623.743V126ZM594.623 89.84L593.379 88.833L592.566 89.8371L593.376 90.8435L594.623 89.84ZM610.303 70.48L611.56 69.4907L610.321 67.9154L609.059 69.473L610.303 70.48ZM653.983 126V127.6H657.277L655.24 125.011L653.983 126ZM581.822 108.434L582.462 78.0337L579.263 77.9663L578.623 108.366L581.822 108.434ZM581.963 79.161L622.123 41.081L619.922 38.759L579.762 76.839L581.963 79.161ZM621.023 41.52H650.783V38.32H621.023V41.52ZM649.642 38.798L611.082 77.998L613.363 80.242L651.923 41.042L649.642 38.798ZM611.212 77.8796L598.252 88.4396L600.273 90.9204L613.233 80.3604L611.212 77.8796ZM598.141 88.5391L579.101 107.259L581.344 109.541L600.384 90.8209L598.141 88.5391ZM561.183 126V7.27999H557.983V126H561.183ZM559.583 8.87999H584.543V5.67999H559.583V8.87999ZM582.943 7.27999V126H586.143V7.27999H582.943ZM584.543 124.4H559.583V127.6H584.543V124.4ZM624.989 124.996L595.869 88.8365L593.376 90.8435L622.496 127.004L624.989 124.996ZM595.866 90.847L611.546 71.487L609.059 69.473L593.379 88.833L595.866 90.847ZM609.045 71.4693L652.725 126.989L655.24 125.011L611.56 69.4907L609.045 71.4693ZM653.983 124.4H623.743V127.6H653.983V124.4ZM651.203 126L649.93 125.03L647.97 127.6H651.203V126ZM689.763 75.44L691.362 75.4958L691.537 70.4753L688.49 74.4697L689.763 75.44ZM689.283 89.2L688.003 90.16L690.723 93.7879L690.882 89.2558L689.283 89.2ZM652.323 39.92V38.32H649.123L651.043 40.88L652.323 39.92ZM680.323 39.92L681.617 38.9797L681.138 38.32H680.323V39.92ZM703.683 72.08L703.731 73.6793L706.755 73.5876L704.977 71.1397L703.683 72.08ZM693.123 72.4L691.839 71.4451L689.864 74.0995L693.171 73.9993L693.123 72.4ZM717.283 39.92V38.32H716.479L715.999 38.9651L717.283 39.92ZM743.843 39.92L745.116 40.8887L747.07 38.32H743.843V39.92ZM706.723 88.72H705.123V93.4663L707.996 89.6887L706.723 88.72ZM706.723 75.28L707.998 74.3142L705.123 70.516V75.28H706.723ZM745.123 126V127.6H748.341L746.398 125.034L745.123 126ZM716.803 126L715.501 126.931L715.98 127.6H716.803V126ZM692.323 91.76L692.542 90.1751L688.858 89.665L691.021 92.6906L692.323 91.76ZM702.723 93.2L704.008 94.153L705.615 91.9852L702.942 91.6151L702.723 93.2ZM678.403 126V127.6H679.208L679.688 126.953L678.403 126ZM652.475 126.97L691.035 76.4103L688.49 74.4697L649.93 125.03L652.475 126.97ZM688.163 75.3842L687.683 89.1442L690.882 89.2558L691.362 75.4958L688.163 75.3842ZM690.563 88.24L653.603 38.96L651.043 40.88L688.003 90.16L690.563 88.24ZM652.323 41.52H680.323V38.32H652.323V41.52ZM679.028 40.8603L702.388 73.0203L704.977 71.1397L681.617 38.9797L679.028 40.8603ZM703.634 70.4807L693.074 70.8007L693.171 73.9993L703.731 73.6793L703.634 70.4807ZM694.406 73.3549L718.566 40.8749L715.999 38.9651L691.839 71.4451L694.406 73.3549ZM717.283 41.52H743.843V38.32H717.283V41.52ZM742.569 38.9513L705.449 87.7513L707.996 89.6887L745.116 40.8887L742.569 38.9513ZM708.323 88.72V75.28H705.123V88.72H708.323ZM705.447 76.2458L743.847 126.966L746.398 125.034L707.998 74.3142L705.447 76.2458ZM745.123 124.4H716.803V127.6H745.123V124.4ZM718.104 125.069L693.624 90.8294L691.021 92.6906L715.501 126.931L718.104 125.069ZM692.103 93.3449L702.503 94.7849L702.942 91.6151L692.542 90.1751L692.103 93.3449ZM701.437 92.247L677.117 125.047L679.688 126.953L704.008 94.153L701.437 92.247ZM678.403 124.4H651.203V127.6H678.403V124.4Z" fill="#87CEFA" mask="url(#path-1-inside-1_66_30)"/>
<defs>
<linearGradient id="paint0_linear_66_30" x1="108.924" y1="31" x2="680.989" y2="90.4779" gradientUnits="userSpaceOnUse">
<stop stop-color="#007FFF"/>
<stop offset="1" stop-color="#87CEFA"/>
</linearGradient>
</defs>
</svg>
