<svg width="320" height="80" viewBox="0 0 320 80" fill="none" xmlns="http://www.w3.org/2000/svg">
<path d="M28.008 59.216L27.7164 59.9611L27.7295 59.9659L28.008 59.216ZM21.232 54.96L20.6777 55.5369L20.6834 55.5422L21.232 54.96ZM16.752 48.52L16.0155 48.8325L16.0196 48.8418L16.752 48.52ZM16.752 32.28L16.0195 31.9582L16.0155 31.9676L16.752 32.28ZM21.288 25.84L21.8366 26.4222L21.8366 26.4222L21.288 25.84ZM28.12 21.64L28.3986 22.39L28.4079 22.3864L28.12 21.64ZM46.096 21.864L45.7869 22.6019L45.7904 22.6033L46.096 21.864ZM53.152 26.904L53.6946 27.4918L54.2636 26.9666L53.7572 26.3808L53.152 26.904ZM47.328 32.28L46.748 32.831L47.2912 33.4027L47.8706 32.8678L47.328 32.28ZM42.68 28.976L42.3551 29.707L42.3619 29.7101L42.3688 29.713L42.68 28.976ZM27.896 31.328L27.3396 30.753L27.3303 30.7623L27.896 31.328ZM25.264 35.304L24.525 34.9976L24.5218 35.0053L24.5187 35.0132L25.264 35.304ZM25.264 45.44L24.5187 45.7308L24.5218 45.7387L24.525 45.7464L25.264 45.44ZM27.896 49.472L27.3211 50.0283L27.3302 50.0378L27.3397 50.0469L27.896 49.472ZM31.928 52.048L31.6372 52.7933L31.6432 52.7956L31.928 52.048ZM42.288 52.104L42.541 52.863L42.5508 52.8596L42.288 52.104ZM47.272 49.136L47.9009 48.6415L47.384 47.9842L46.7502 48.5296L47.272 49.136ZM52.424 55.688L52.9058 56.3267L53.5574 55.8351L53.0529 55.1935L52.424 55.688ZM44.976 59.384L44.7443 58.6183L44.7415 58.6192L44.976 59.384ZM44.136 54.512H43.336V55.2065L44.0236 55.3041L44.136 54.512ZM44.136 39.784V38.984H43.336V39.784H44.136ZM52.424 39.784H53.224V38.984H52.424V39.784ZM52.424 55.688L52.3116 56.4801L53.224 56.6095V55.688H52.424ZM36.576 59.872C33.5619 59.872 30.8014 59.4001 28.2865 58.4661L27.7295 59.9659C30.4413 60.9732 33.3928 61.472 36.576 61.472V59.872ZM28.2995 58.471C25.8153 57.4989 23.6447 56.1343 21.7806 54.3778L20.6834 55.5422C22.702 57.4444 25.0487 58.9171 27.7165 59.961L28.2995 58.471ZM21.7863 54.3831C19.9592 52.6277 18.5258 50.5682 17.4844 48.1982L16.0196 48.8418C17.1435 51.3998 18.6968 53.6336 20.6777 55.5369L21.7863 54.3831ZM17.4885 48.2076C16.4891 45.852 15.984 43.253 15.984 40.4H14.384C14.384 43.4457 14.9242 46.26 16.0155 48.8324L17.4885 48.2076ZM15.984 40.4C15.984 37.547 16.4891 34.948 17.4885 32.5924L16.0155 31.9676C14.9242 34.54 14.384 37.3543 14.384 40.4H15.984ZM17.4844 32.6018C18.5243 30.2352 19.9741 28.1773 21.8366 26.4222L20.7394 25.2578C18.7192 27.1614 17.145 29.3968 16.0196 31.9582L17.4844 32.6018ZM21.8366 26.4222C23.6966 24.6696 25.8809 23.325 28.3986 22.3899L27.8415 20.8901C25.1324 21.8963 22.7621 23.3517 20.7394 25.2578L21.8366 26.4222ZM28.4079 22.3864C30.919 21.4178 33.6947 20.928 36.744 20.928V19.328C33.5213 19.328 30.5476 19.8462 27.8321 20.8936L28.4079 22.3864ZM36.744 20.928C40.1266 20.928 43.1364 21.4915 45.7869 22.6019L46.4051 21.1261C43.5302 19.9218 40.3054 19.328 36.744 19.328V20.928ZM45.7904 22.6033C48.4799 23.715 50.7278 25.3228 52.5468 27.4272L53.7572 26.3808C51.7682 24.0798 49.3121 22.3277 46.4016 21.1247L45.7904 22.6033ZM52.6094 26.3162L46.7854 31.6922L47.8706 32.8678L53.6946 27.4918L52.6094 26.3162ZM47.908 31.729C46.4233 30.1662 44.785 28.9964 42.9912 28.239L42.3688 29.713C43.935 30.3743 45.3954 31.4072 46.748 32.831L47.908 31.729ZM43.0049 28.2449C41.215 27.4494 39.2739 27.056 37.192 27.056V28.656C39.0674 28.656 40.785 29.0092 42.3551 29.707L43.0049 28.2449ZM37.192 27.056C35.2037 27.056 33.3696 27.3681 31.6992 28.0044L32.2688 29.4996C33.7344 28.9412 35.3723 28.656 37.192 28.656V27.056ZM31.6992 28.0044C30.0343 28.6387 28.5781 29.5546 27.3397 30.7531L28.4523 31.9029C29.5285 30.8614 30.7977 30.06 32.2688 29.4996L31.6992 28.0044ZM27.3303 30.7623C26.1327 31.9599 25.198 33.3745 24.525 34.9976L26.003 35.6104C26.5993 34.1721 27.4193 32.9361 28.4617 31.8937L27.3303 30.7623ZM24.5187 35.0132C23.8807 36.6483 23.568 38.4473 23.568 40.4H25.168C25.168 38.6194 25.4527 37.0211 26.0093 35.5948L24.5187 35.0132ZM23.568 40.4C23.568 42.3176 23.8814 44.0975 24.5187 45.7308L26.0093 45.1492C25.452 43.7211 25.168 42.1411 25.168 40.4H23.568ZM24.525 45.7464C25.1971 47.3672 26.1292 48.7967 27.3211 50.0283L28.4709 48.9157C27.4228 47.8327 26.6003 46.5741 26.003 45.1336L24.525 45.7464ZM27.3397 50.0469C28.5749 51.2422 30.0096 52.1581 31.6372 52.7933L32.2188 51.3027C30.7851 50.7432 29.5318 49.9417 28.4523 48.8971L27.3397 50.0469ZM31.6432 52.7956C33.3118 53.4313 35.1269 53.744 37.08 53.744V52.144C35.2998 52.144 33.6802 51.8594 32.2128 51.3004L31.6432 52.7956ZM37.08 53.744C38.9569 53.744 40.7784 53.4505 42.541 52.8629L42.035 51.3451C40.4376 51.8775 38.7871 52.144 37.08 52.144V53.744ZM42.5508 52.8596C44.3774 52.2243 46.1246 51.1787 47.7938 49.7424L46.7502 48.5296C45.2087 49.856 43.6333 50.7891 42.0252 51.3484L42.5508 52.8596ZM46.6431 49.6305L51.7951 56.1825L53.0529 55.1935L47.9009 48.6415L46.6431 49.6305ZM51.9422 55.0493C49.8974 56.5919 47.5015 57.7839 44.7443 58.6183L45.2077 60.1497C48.1252 59.2668 50.6946 57.9947 52.9058 56.3267L51.9422 55.0493ZM44.7415 58.6192C42.0139 59.4556 39.2929 59.872 36.576 59.872V61.472C39.4591 61.472 42.3381 61.0297 45.2106 60.1488L44.7415 58.6192ZM44.936 54.512V39.784H43.336V54.512H44.936ZM44.136 40.584H52.424V38.984H44.136V40.584ZM51.624 39.784V55.688H53.224V39.784H51.624ZM52.5364 54.8959L44.2484 53.7199L44.0236 55.3041L52.3116 56.4801L52.5364 54.8959ZM64.7151 60H63.9151V60.8H64.7151V60ZM64.7151 29.872V29.072H63.9151V29.872H64.7151ZM73.0591 29.872H73.8591V29.072H73.0591V29.872ZM73.0591 38.384L72.3371 38.7286L73.8591 38.384H73.0591ZM71.8831 35.92L71.1458 35.6096L71.0065 35.9405L71.1611 36.2646L71.8831 35.92ZM76.1951 31.104L76.5792 31.8059L76.5892 31.8002L76.1951 31.104ZM83.4191 29.424H84.2191V28.624H83.4191V29.424ZM83.4191 37.488L83.3395 38.284L84.2191 38.372V37.488H83.4191ZM82.4111 37.432L82.3119 38.2258L82.3613 38.232H82.4111V37.432ZM75.6351 39.448L76.1777 40.0358L76.1784 40.0353L75.6351 39.448ZM73.4511 60V60.8H74.2511V60H73.4511ZM65.5151 60V29.872H63.9151V60H65.5151ZM64.7151 30.672H73.0591V29.072H64.7151V30.672ZM72.2591 29.872V38.384H73.8591V29.872H72.2591ZM73.7811 38.0394L72.6051 35.5754L71.1611 36.2646L72.3371 38.7286L73.7811 38.0394ZM72.6204 36.2304C73.4481 34.2648 74.7631 32.7995 76.5791 31.8058L75.8111 30.4022C73.6698 31.5738 72.1102 33.3192 71.1458 35.6096L72.6204 36.2304ZM76.5892 31.8002C78.4213 30.7631 80.6861 30.224 83.4191 30.224V28.624C80.4775 28.624 77.9262 29.2049 75.801 30.4078L76.5892 31.8002ZM82.6191 29.424V37.488H84.2191V29.424H82.6191ZM83.4987 36.692C83.1053 36.6526 82.7421 36.632 82.4111 36.632V38.232C82.6775 38.232 82.9863 38.2487 83.3395 38.284L83.4987 36.692ZM82.5104 36.6382C82.1752 36.5963 81.8245 36.576 81.4591 36.576V38.176C81.7657 38.176 82.0497 38.193 82.3119 38.2258L82.5104 36.6382ZM81.4591 36.576C78.9058 36.576 76.7584 37.3192 75.0919 38.8607L76.1784 40.0353C77.4985 38.8142 79.2338 38.176 81.4591 38.176V36.576ZM75.0925 38.8602C73.4101 40.4132 72.6511 42.7801 72.6511 45.776H74.2511C74.2511 43.0226 74.9482 41.1708 76.1777 40.0358L75.0925 38.8602ZM72.6511 45.776V60H74.2511V45.776H72.6511ZM73.4511 59.2H64.7151V60.8H73.4511V59.2ZM109.605 60H108.805V60.8H109.605V60ZM109.605 54.12H110.405V53.9536L110.338 53.801L109.605 54.12ZM109.045 52.832H108.245V52.9984L108.311 53.151L109.045 52.832ZM107.309 37.936L106.763 38.5209L106.773 38.5297L107.309 37.936ZM97.3408 37.152L97.5826 37.9147L97.5938 37.9109L97.3408 37.152ZM93.4208 39.168L92.7092 39.5336L93.1545 40.4003L93.9179 39.7948L93.4208 39.168ZM90.2848 33.064L89.824 32.41L89.2553 32.8107L89.5732 33.4296L90.2848 33.064ZM96.2208 30.376L96.0093 29.6045L96.0093 29.6045L96.2208 30.376ZM113.973 32.672L114.492 32.0633L114.492 32.0633L113.973 32.672ZM117.781 60V60.8H118.581V60H117.781ZM94.3728 59.272L94.0214 59.9907L94.0279 59.9939L94.0345 59.9969L94.3728 59.272ZM90.5088 55.968L91.18 55.5326L91.18 55.5326L90.5088 55.968ZM90.4528 46.616L89.7872 46.1722L89.7828 46.1787L89.7787 46.1853L90.4528 46.616ZM94.6528 43.48L94.9449 44.2249L94.9574 44.2197L94.6528 43.48ZM110.109 42.304H110.909V41.504H110.109V42.304ZM110.109 47.4V48.2H110.909V47.4H110.109ZM98.7968 48.408L98.2762 47.8006L98.2688 47.8069L98.2616 47.8134L98.7968 48.408ZM98.9648 53.616L98.4718 54.246L98.4868 54.2578L98.5024 54.2688L98.9648 53.616ZM106.525 53.56L106.927 54.2518L106.935 54.2471L106.943 54.2421L106.525 53.56ZM109.045 50.48L109.804 50.227L109.103 48.1239L108.299 50.19L109.045 50.48ZM110.389 54.512L111.149 54.7606L111.231 54.5096L111.148 54.259L110.389 54.512ZM106.917 58.936L106.505 58.25L106.505 58.25L106.917 58.936ZM110.405 60V54.12H108.805V60H110.405ZM110.338 53.801L109.778 52.513L108.311 53.151L108.871 54.439L110.338 53.801ZM109.845 52.832V42.304H108.245V52.832H109.845ZM109.845 42.304C109.845 40.2596 109.203 38.5691 107.845 37.3423L106.773 38.5297C107.729 39.3936 108.245 40.6151 108.245 42.304H109.845ZM107.855 37.3512C106.524 36.1095 104.55 35.568 102.101 35.568V37.168C104.355 37.168 105.853 37.6718 106.763 38.5208L107.855 37.3512ZM102.101 35.568C100.407 35.568 98.735 35.844 97.0878 36.3931L97.5938 37.9109C99.0827 37.4147 100.584 37.168 102.101 37.168V35.568ZM97.099 36.3894C95.4905 36.8994 94.0938 37.6132 92.9237 38.5412L93.9179 39.7948C94.9132 39.0055 96.1298 38.3752 97.5826 37.9146L97.099 36.3894ZM94.1324 38.8024L90.9964 32.6984L89.5732 33.4296L92.7092 39.5336L94.1324 38.8024ZM90.7456 33.718C92.2995 32.6232 94.19 31.7623 96.4324 31.1475L96.0093 29.6045C93.6222 30.259 91.5555 31.1901 89.824 32.41L90.7456 33.718ZM96.4324 31.1475C98.6784 30.5317 100.959 30.224 103.277 30.224V28.624C100.816 28.624 98.3925 28.951 96.0093 29.6045L96.4324 31.1475ZM103.277 30.224C107.75 30.224 111.106 31.2784 113.454 33.2807L114.492 32.0633C111.762 29.7349 107.988 28.624 103.277 28.624V30.224ZM113.454 33.2807C115.754 35.2429 116.981 38.3579 116.981 42.808H118.581C118.581 38.0741 117.269 34.4318 114.492 32.0633L113.454 33.2807ZM116.981 42.808V60H118.581V42.808H116.981ZM117.781 59.2H109.605V60.8H117.781V59.2ZM100.421 59.648C98.1553 59.648 96.2607 59.2702 94.7111 58.5471L94.0345 59.9969C95.8449 60.8418 97.9823 61.248 100.421 61.248V59.648ZM94.7242 58.5533C93.1564 57.7868 91.9868 56.7764 91.18 55.5326L89.8376 56.4034C90.8229 57.9222 92.2292 59.1145 94.0214 59.9907L94.7242 58.5533ZM91.18 55.5326C90.3718 54.2867 89.9648 52.8898 89.9648 51.32H88.3648C88.3648 53.1848 88.8538 54.8866 89.8376 56.4034L91.18 55.5326ZM89.9648 51.32C89.9648 49.6612 90.3604 48.2466 91.127 47.0467L89.7787 46.1853C88.8279 47.6734 88.3648 49.3948 88.3648 51.32H89.9648ZM91.1185 47.0598C91.9021 45.8843 93.1526 44.9276 94.9449 44.2248L94.3607 42.7352C92.345 43.5257 90.7955 44.6597 89.7872 46.1722L91.1185 47.0598ZM94.9574 44.2197C96.7297 43.49 99.0978 43.104 102.101 43.104V41.504C98.9812 41.504 96.3839 41.902 94.3482 42.7403L94.9574 44.2197ZM102.101 43.104H110.109V41.504H102.101V43.104ZM109.309 42.304V47.4H110.909V42.304H109.309ZM110.109 46.6H103.053V48.2H110.109V46.6ZM103.053 46.6C100.969 46.6 99.2928 46.9292 98.2762 47.8006L99.3174 49.0154C99.8689 48.5428 101.03 48.2 103.053 48.2V46.6ZM98.2616 47.8134C97.3457 48.6377 96.8768 49.6941 96.8768 50.928H98.4768C98.4768 50.1459 98.7546 49.5223 99.332 49.0026L98.2616 47.8134ZM96.8768 50.928C96.8768 52.2862 97.4133 53.4176 98.4718 54.246L99.4579 52.986C98.799 52.4704 98.4768 51.8098 98.4768 50.928H96.8768ZM98.5024 54.2688C99.5774 55.0303 100.972 55.368 102.605 55.368V53.768C101.176 53.768 100.144 53.471 99.4272 52.9632L98.5024 54.2688ZM102.605 55.368C104.189 55.368 105.637 55.0008 106.927 54.2518L106.123 52.8682C105.098 53.4632 103.933 53.768 102.605 53.768V55.368ZM106.943 54.2421C108.259 53.4355 109.209 52.2661 109.79 50.77L108.299 50.19C107.836 51.3819 107.105 52.2659 106.107 52.8779L106.943 54.2421ZM108.286 50.733L109.63 54.765L111.148 54.259L109.804 50.227L108.286 50.733ZM109.628 54.2634C109.051 56.0302 108.013 57.3456 106.505 58.25L107.328 59.622C109.181 58.5104 110.457 56.8765 111.149 54.7606L109.628 54.2634ZM106.505 58.25C104.986 59.1615 102.976 59.648 100.421 59.648V61.248C103.167 61.248 105.488 60.7265 107.328 59.622L106.505 58.25ZM141.311 58.768L141.717 58.0785L141.717 58.0785L141.311 58.768ZM136.831 53.672L136.102 54.0013L136.105 54.0084L136.109 54.0155L136.831 53.672ZM136.775 36.2L137.507 36.5238L137.507 36.5238L136.775 36.2ZM141.143 31.104L140.738 30.4145L140.738 30.4145L141.143 31.104ZM155.591 31.384L155.188 32.075L155.195 32.079L155.202 32.0828L155.591 31.384ZM160.967 36.76L160.271 37.1533L160.275 37.1617L160.967 36.76ZM160.967 53.168L160.275 52.7663L160.271 52.7747L160.967 53.168ZM155.591 58.544L155.202 57.8452L155.197 57.848L155.591 58.544ZM130.167 70.864H129.367V71.664H130.167V70.864ZM130.167 29.872V29.072H129.367V29.872H130.167ZM138.511 29.872H139.311V29.072H138.511V29.872ZM138.511 36.032L139.311 36.047L139.311 36.0395V36.032H138.511ZM138.343 44.992L137.543 44.977L137.543 45.0096L137.545 45.0422L138.343 44.992ZM138.903 53.896H139.703V53.8709L139.702 53.8458L138.903 53.896ZM138.903 70.864V71.664H139.703V70.864H138.903ZM150.327 52.272L149.926 51.5801L149.916 51.586L150.327 52.272ZM153.071 49.416L152.373 49.0257L152.369 49.0329L153.071 49.416ZM153.071 40.456L152.369 40.8391L152.373 40.8472L152.378 40.8552L153.071 40.456ZM150.327 37.6L149.916 38.2861L149.926 38.2918L150.327 37.6ZM142.543 37.6L142.945 38.2918L142.945 38.2918L142.543 37.6ZM139.799 40.456L140.502 40.8391L140.502 40.8391L139.799 40.456ZM139.799 49.416L139.092 49.7903L139.097 49.7991L139.799 49.416ZM142.543 52.272L142.945 51.5802L142.945 51.5802L142.543 52.272ZM147.975 59.648C145.558 59.648 143.481 59.1159 141.717 58.0785L140.906 59.4575C142.95 60.6601 145.316 61.248 147.975 61.248V59.648ZM141.717 58.0785C139.97 57.0506 138.578 55.4825 137.554 53.3285L136.109 54.0155C137.25 56.4162 138.845 58.2454 140.906 59.4575L141.717 58.0785ZM137.56 53.3427C136.576 51.1631 136.063 48.3724 136.063 44.936H134.463C134.463 48.5182 134.996 51.5516 136.102 54.0013L137.56 53.3427ZM136.063 44.936C136.063 41.457 136.559 38.6655 137.507 36.5238L136.044 35.8762C134.976 38.2891 134.463 41.3216 134.463 44.936H136.063ZM137.507 36.5238C138.456 34.3791 139.807 32.8181 141.549 31.7935L140.738 30.4145C138.671 31.6299 137.11 33.4662 136.044 35.8762L137.507 36.5238ZM141.549 31.7935C143.307 30.7591 145.439 30.224 147.975 30.224V28.624C145.211 28.624 142.787 29.2089 140.738 30.4145L141.549 31.7935ZM147.975 30.224C150.685 30.224 153.082 30.8463 155.188 32.075L155.994 30.693C153.621 29.3083 150.941 28.624 147.975 28.624V30.224ZM155.202 32.0828C157.348 33.279 159.035 34.9641 160.271 37.1533L161.664 36.3667C160.286 33.9265 158.389 32.0277 155.981 30.6852L155.202 32.0828ZM160.275 37.1617C161.537 39.3348 162.183 41.9167 162.183 44.936H163.783C163.783 41.6833 163.085 38.8145 161.659 36.3583L160.275 37.1617ZM162.183 44.936C162.183 47.9946 161.536 50.5946 160.275 52.7663L161.659 53.5697C163.086 51.1121 163.783 48.2241 163.783 44.936H162.183ZM160.271 52.7747C159.035 54.9639 157.348 56.649 155.202 57.8452L155.981 59.2428C158.389 57.9003 160.286 56.0015 161.664 53.5613L160.271 52.7747ZM155.197 57.848C153.089 59.0424 150.689 59.648 147.975 59.648V61.248C150.936 61.248 153.613 60.5843 155.986 59.24L155.197 57.848ZM130.967 70.864V29.872H129.367V70.864H130.967ZM130.167 30.672H138.511V29.072H130.167V30.672ZM137.711 29.872V36.032H139.311V29.872H137.711ZM137.711 36.017L137.543 44.977L139.143 45.007L139.311 36.047L137.711 36.017ZM137.545 45.0422L138.105 53.9462L139.702 53.8458L139.142 44.9418L137.545 45.0422ZM138.103 53.896V70.864H139.703V53.896H138.103ZM138.903 70.064H130.167V71.664H138.903V70.064ZM146.463 54.08C148.047 54.08 149.481 53.7129 150.739 52.958L149.916 51.586C148.934 52.1751 147.791 52.48 146.463 52.48V54.08ZM150.729 52.9638C152.019 52.2147 153.035 51.153 153.774 49.7991L152.369 49.0329C151.764 50.143 150.95 50.9853 149.926 51.5802L150.729 52.9638ZM153.77 49.8063C154.557 48.3977 154.935 46.7652 154.935 44.936H153.335C153.335 46.5415 153.005 47.8956 152.373 49.0257L153.77 49.8063ZM154.935 44.936C154.935 43.0738 154.558 41.4357 153.765 40.0568L152.378 40.8552C153.003 41.9403 153.335 43.2889 153.335 44.936H154.935ZM153.774 40.0729C153.035 38.719 152.019 37.6573 150.729 36.9082L149.926 38.2918C150.95 38.8867 151.764 39.729 152.369 40.8391L153.774 40.0729ZM150.739 36.914C149.481 36.1591 148.047 35.792 146.463 35.792V37.392C147.791 37.392 148.934 37.6969 149.916 38.286L150.739 36.914ZM146.463 35.792C144.879 35.792 143.432 36.1592 142.142 36.9082L142.945 38.2918C143.97 37.6968 145.136 37.392 146.463 37.392V35.792ZM142.142 36.9082C140.851 37.6573 139.836 38.719 139.097 40.0729L140.502 40.8391C141.107 39.729 141.921 38.8867 142.945 38.2918L142.142 36.9082ZM139.097 40.0729C138.347 41.4483 137.991 43.0804 137.991 44.936H139.591C139.591 43.2822 139.908 41.9277 140.502 40.8391L139.097 40.0729ZM137.991 44.936C137.991 46.7584 138.348 48.3851 139.092 49.7903L140.506 49.0417C139.906 47.9082 139.591 46.5483 139.591 44.936H137.991ZM139.097 49.7991C139.836 51.153 140.851 52.2147 142.142 52.9638L142.945 51.5802C141.921 50.9853 141.107 50.143 140.502 49.0329L139.097 49.7991ZM142.142 52.9638C143.432 53.7128 144.879 54.08 146.463 54.08V52.48C145.136 52.48 143.97 52.1752 142.945 51.5802L142.142 52.9638ZM198.007 30.88L197.638 31.5898L197.647 31.5942L197.655 31.5983L198.007 30.88ZM202.487 35.248L201.786 35.632L201.789 35.6377L202.487 35.248ZM204.111 60V60.8H204.911V60H204.111ZM195.375 60H194.575V60.8H195.375V60ZM193.751 38.72L193.158 39.2563L193.167 39.2665L193.751 38.72ZM185.519 37.88L185.887 38.5906L185.896 38.5859L185.519 37.88ZM182.943 40.512L182.237 40.1367L182.232 40.1454L182.228 40.1542L182.943 40.512ZM182.047 60V60.8H182.847V60H182.047ZM173.311 60H172.511V60.8H173.311V60ZM173.311 18.448V17.648H172.511V18.448H173.311ZM182.047 18.448H182.847V17.648H182.047V18.448ZM182.047 38.216L181.416 38.7072L182.847 40.5476V38.216H182.047ZM180.087 35.696L179.383 35.3175L179.136 35.7762L179.456 36.1872L180.087 35.696ZM184.735 31.048L185.114 31.7528L185.114 31.7528L184.735 31.048ZM191.623 30.224C193.902 30.224 195.9 30.686 197.638 31.5898L198.376 30.1702C196.381 29.1327 194.124 28.624 191.623 28.624V30.224ZM197.655 31.5983C199.401 32.4542 200.777 33.7884 201.786 35.632L203.189 34.864C202.033 32.7502 200.421 31.1724 198.359 30.1617L197.655 31.5983ZM201.789 35.6377C202.785 37.4233 203.311 39.778 203.311 42.752H204.911C204.911 39.6033 204.356 36.9553 203.186 34.8583L201.789 35.6377ZM203.311 42.752V60H204.911V42.752H203.311ZM204.111 59.2H195.375V60.8H204.111V59.2ZM196.175 60V44.096H194.575V60H196.175ZM196.175 44.096C196.175 41.571 195.615 39.5409 194.336 38.1735L193.167 39.2665C194.053 40.2137 194.575 41.7677 194.575 44.096H196.175ZM194.345 38.1838C193.112 36.8189 191.379 36.184 189.271 36.184V37.784C191.046 37.784 192.3 38.3065 193.158 39.2562L194.345 38.1838ZM189.271 36.184C187.771 36.184 186.389 36.5096 185.143 37.1741L185.896 38.5859C186.89 38.0557 188.009 37.784 189.271 37.784V36.184ZM185.152 37.1694C183.909 37.8123 182.939 38.8149 182.237 40.1367L183.65 40.8873C184.217 39.8198 184.964 39.0677 185.887 38.5906L185.152 37.1694ZM182.228 40.1542C181.557 41.4951 181.247 43.1596 181.247 45.104H182.847C182.847 43.3151 183.135 41.9182 183.659 40.8698L182.228 40.1542ZM181.247 45.104V60H182.847V45.104H181.247ZM182.047 59.2H173.311V60.8H182.047V59.2ZM174.111 60V18.448H172.511V60H174.111ZM173.311 19.248H182.047V17.648H173.311V19.248ZM181.247 18.448V38.216H182.847V18.448H181.247ZM182.679 37.7248L180.719 35.2048L179.456 36.1872L181.416 38.7072L182.679 37.7248ZM180.792 36.0745C181.8 34.197 183.236 32.7611 185.114 31.7528L184.357 30.3432C182.202 31.5002 180.54 33.163 179.383 35.3175L180.792 36.0745ZM185.114 31.7528C187 30.7401 189.163 30.224 191.623 30.224V28.624C188.932 28.624 186.503 29.1905 184.357 30.3432L185.114 31.7528ZM216.51 60H215.71V60.8H216.51V60ZM216.51 29.872V29.072H215.71V29.872H216.51ZM225.246 29.872H226.046V29.072H225.246V29.872ZM225.246 60V60.8H226.046V60H225.246ZM216.958 24.272L216.415 24.859L216.415 24.859L216.958 24.272ZM216.958 17.328L217.502 17.915L217.502 17.915L216.958 17.328ZM224.798 17.272L224.267 17.8699L224.273 17.8755L224.279 17.881L224.798 17.272ZM224.798 24.272L225.353 24.8487L225.353 24.8483L224.798 24.272ZM217.31 60V29.872H215.71V60H217.31ZM216.51 30.672H225.246V29.072H216.51V30.672ZM224.446 29.872V60H226.046V29.872H224.446ZM225.246 59.2H216.51V60.8H225.246V59.2ZM220.878 24.872C219.438 24.872 218.337 24.4586 217.502 23.685L216.415 24.859C217.595 25.952 219.107 26.472 220.878 26.472V24.872ZM217.502 23.685C216.658 22.904 216.246 21.9599 216.246 20.8H214.646C214.646 22.4028 215.242 23.7733 216.415 24.859L217.502 23.685ZM216.246 20.8C216.246 19.6401 216.658 18.696 217.502 17.915L216.415 16.741C215.242 17.8267 214.646 19.1972 214.646 20.8H216.246ZM217.502 17.915C218.337 17.1414 219.438 16.728 220.878 16.728V15.128C219.107 15.128 217.595 15.648 216.415 16.741L217.502 17.915ZM220.878 16.728C222.327 16.728 223.432 17.128 224.267 17.8699L225.33 16.6741C224.148 15.624 222.64 15.128 220.878 15.128V16.728ZM224.279 17.881C225.1 18.5803 225.51 19.4735 225.51 20.632H227.11C227.11 19.0279 226.512 17.681 225.317 16.663L224.279 17.881ZM225.51 20.632C225.51 21.8805 225.088 22.8826 224.243 23.6957L225.353 24.8483C226.525 23.7201 227.11 22.2955 227.11 20.632H225.51ZM224.244 23.6953C223.453 24.4552 222.362 24.872 220.878 24.872V26.472C222.679 26.472 224.202 25.9555 225.353 24.8487L224.244 23.6953ZM245.058 53.84L244.258 53.8232L244.217 55.789L245.619 54.4105L245.058 53.84ZM245.282 43.2L244.731 42.6195L244.489 42.8493L244.482 43.1832L245.282 43.2ZM259.338 29.872V29.072H259.019L258.787 29.2915L259.338 29.872ZM269.754 29.872L270.324 30.433L271.663 29.072H269.754V29.872ZM256.258 43.592L256.763 44.2122L256.797 44.1844L256.828 44.153L256.258 43.592ZM251.722 47.288L251.217 46.6678L251.188 46.6914L251.161 46.7175L251.722 47.288ZM237.834 60H237.034V60.8H237.834V60ZM237.834 18.448V17.648H237.034V18.448H237.834ZM246.57 18.448H247.37V17.648H246.57V18.448ZM246.57 60V60.8H247.37V60H246.57ZM260.29 60L259.667 60.5018L259.907 60.8H260.29V60ZM250.098 47.344L249.476 46.8405L249.07 47.3426L249.475 47.8458L250.098 47.344ZM255.586 40.568L256.215 40.0733L255.595 39.2857L254.964 40.0645L255.586 40.568ZM270.874 60V60.8H272.521L271.503 59.5053L270.874 60ZM245.858 53.8568L246.082 43.2168L244.482 43.1832L244.258 53.8232L245.858 53.8568ZM245.832 43.7805L259.888 30.4525L258.787 29.2915L244.731 42.6195L245.832 43.7805ZM259.338 30.672H269.754V29.072H259.338V30.672ZM269.184 29.311L255.688 43.031L256.828 44.153L270.324 30.433L269.184 29.311ZM255.753 42.9718L251.217 46.6678L252.227 47.9082L256.763 44.2122L255.753 42.9718ZM251.161 46.7175L244.497 53.2695L245.619 54.4105L252.283 47.8585L251.161 46.7175ZM238.634 60V18.448H237.034V60H238.634ZM237.834 19.248H246.57V17.648H237.834V19.248ZM245.77 18.448V60H247.37V18.448H245.77ZM246.57 59.2H237.834V60.8H246.57V59.2ZM260.913 59.4982L250.721 46.8422L249.475 47.8458L259.667 60.5018L260.913 59.4982ZM250.72 47.8475L256.208 41.0715L254.964 40.0645L249.476 46.8405L250.72 47.8475ZM254.957 41.0627L270.245 60.4947L271.503 59.5053L256.215 40.0733L254.957 41.0627ZM270.874 59.2H260.29V60.8H270.874V59.2ZM274.381 60L273.745 59.5149L272.765 60.8H274.381V60ZM287.877 42.304L288.676 42.3319L288.764 39.8216L287.241 41.8189L287.877 42.304ZM287.709 47.12L287.069 47.6L288.429 49.414L288.508 47.1479L287.709 47.12ZM274.773 29.872V29.072H273.173L274.133 30.352L274.773 29.872ZM284.573 29.872L285.22 29.4018L284.981 29.072H284.573V29.872ZM292.749 41.128L292.773 41.9276L294.285 41.8818L293.396 40.6578L292.749 41.128ZM289.053 41.24L288.411 40.7625L287.424 42.0897L289.077 42.0396L289.053 41.24ZM297.509 29.872V29.072H297.107L296.867 29.3945L297.509 29.872ZM306.805 29.872L307.442 30.3563L308.419 29.072H306.805V29.872ZM293.813 46.952H293.013V49.3251L294.45 47.4363L293.813 46.952ZM293.813 42.248L294.451 41.7651L293.013 39.866V42.248H293.813ZM307.253 60V60.8H308.862L307.891 59.5171L307.253 60ZM297.341 60L296.69 60.4653L296.929 60.8H297.341V60ZM288.773 48.016L288.883 47.2236L287.041 46.9685L288.122 48.4813L288.773 48.016ZM292.413 48.52L293.055 48.9965L293.859 47.9126L292.523 47.7276L292.413 48.52ZM283.901 60V60.8H284.304L284.543 60.4765L283.901 60ZM275.017 60.4851L288.513 42.7891L287.241 41.8189L273.745 59.5149L275.017 60.4851ZM287.077 42.2761L286.909 47.0921L288.508 47.1479L288.676 42.3319L287.077 42.2761ZM288.349 46.64L275.413 29.392L274.133 30.352L287.069 47.6L288.349 46.64ZM274.773 30.672H284.573V29.072H274.773V30.672ZM283.926 30.3422L292.102 41.5982L293.396 40.6578L285.22 29.4018L283.926 30.3422ZM292.725 40.3284L289.029 40.4404L289.077 42.0396L292.773 41.9276L292.725 40.3284ZM289.695 41.7175L298.151 30.3495L296.867 29.3945L288.411 40.7625L289.695 41.7175ZM297.509 30.672H306.805V29.072H297.509V30.672ZM306.168 29.3877L293.176 46.4677L294.45 47.4363L307.442 30.3563L306.168 29.3877ZM294.613 46.952V42.248H293.013V46.952H294.613ZM293.175 42.7309L306.615 60.4829L307.891 59.5171L294.451 41.7651L293.175 42.7309ZM307.253 59.2H297.341V60.8H307.253V59.2ZM297.992 59.5347L289.424 47.5507L288.122 48.4813L296.69 60.4653L297.992 59.5347ZM288.663 48.8084L292.303 49.3124L292.523 47.7276L288.883 47.2236L288.663 48.8084ZM291.77 48.0435L283.258 59.5235L284.543 60.4765L293.055 48.9965L291.77 48.0435ZM283.901 59.2H274.381V60.8H283.901V59.2Z" fill="white"/>
</svg>
