<svg width="360" height="120" viewBox="0 0 360 120" fill="none" xmlns="http://www.w3.org/2000/svg">
<path d="M48.008 79.216L47.7164 79.9611L47.7295 79.9659L48.008 79.216ZM41.232 74.96L40.6777 75.5369L40.6834 75.5422L41.232 74.96ZM36.752 68.52L36.0155 68.8325L36.0196 68.8418L36.752 68.52ZM36.752 52.28L36.0195 51.9582L36.0155 51.9676L36.752 52.28ZM41.288 45.84L41.8366 46.4222L41.8366 46.4222L41.288 45.84ZM48.12 41.64L48.3986 42.39L48.4079 42.3864L48.12 41.64ZM66.096 41.864L65.7869 42.6019L65.7904 42.6033L66.096 41.864ZM73.152 46.904L73.6946 47.4918L74.2636 46.9666L73.7572 46.3808L73.152 46.904ZM67.328 52.28L66.748 52.831L67.2912 53.4027L67.8706 52.8678L67.328 52.28ZM62.68 48.976L62.3551 49.707L62.3619 49.7101L62.3688 49.713L62.68 48.976ZM47.896 51.328L47.3396 50.753L47.3303 50.7623L47.896 51.328ZM45.264 55.304L44.525 54.9976L44.5218 55.0053L44.5187 55.0132L45.264 55.304ZM45.264 65.44L44.5187 65.7308L44.5218 65.7387L44.525 65.7464L45.264 65.44ZM47.896 69.472L47.3211 70.0283L47.3302 70.0378L47.3397 70.0469L47.896 69.472ZM51.928 72.048L51.6372 72.7933L51.6432 72.7956L51.928 72.048ZM62.288 72.104L62.541 72.863L62.5508 72.8596L62.288 72.104ZM67.272 69.136L67.9009 68.6415L67.384 67.9842L66.7502 68.5296L67.272 69.136ZM72.424 75.688L72.9058 76.3267L73.5574 75.8351L73.0529 75.1935L72.424 75.688ZM64.976 79.384L64.7443 78.6183L64.7415 78.6192L64.976 79.384ZM64.136 74.512H63.336V75.2065L64.0236 75.3041L64.136 74.512ZM64.136 59.784V58.984H63.336V59.784H64.136ZM72.424 59.784H73.224V58.984H72.424V59.784ZM72.424 75.688L72.3116 76.4801L73.224 76.6095V75.688H72.424ZM56.576 79.872C53.5619 79.872 50.8014 79.4001 48.2865 78.4661L47.7295 79.9659C50.4413 80.9732 53.3928 81.472 56.576 81.472V79.872ZM48.2995 78.471C45.8153 77.4989 43.6447 76.1343 41.7806 74.3778L40.6834 75.5422C42.702 77.4444 45.0487 78.9171 47.7165 79.961L48.2995 78.471ZM41.7863 74.3831C39.9592 72.6277 38.5258 70.5682 37.4844 68.1982L36.0196 68.8418C37.1435 71.3998 38.6968 73.6336 40.6777 75.5369L41.7863 74.3831ZM37.4885 68.2076C36.4891 65.852 35.984 63.253 35.984 60.4H34.384C34.384 63.4457 34.9242 66.26 36.0155 68.8324L37.4885 68.2076ZM35.984 60.4C35.984 57.547 36.4891 54.948 37.4885 52.5924L36.0155 51.9676C34.9242 54.54 34.384 57.3543 34.384 60.4H35.984ZM37.4844 52.6018C38.5243 50.2352 39.9741 48.1773 41.8366 46.4222L40.7394 45.2578C38.7192 47.1614 37.145 49.3968 36.0196 51.9582L37.4844 52.6018ZM41.8366 46.4222C43.6966 44.6696 45.8809 43.325 48.3986 42.3899L47.8415 40.8901C45.1324 41.8963 42.7621 43.3517 40.7394 45.2578L41.8366 46.4222ZM48.4079 42.3864C50.919 41.4178 53.6947 40.928 56.744 40.928V39.328C53.5213 39.328 50.5476 39.8462 47.8321 40.8936L48.4079 42.3864ZM56.744 40.928C60.1266 40.928 63.1364 41.4915 65.7869 42.6019L66.4051 41.1261C63.5302 39.9218 60.3054 39.328 56.744 39.328V40.928ZM65.7904 42.6033C68.4799 43.715 70.7278 45.3228 72.5468 47.4272L73.7572 46.3808C71.7682 44.0798 69.3121 42.3277 66.4016 41.1247L65.7904 42.6033ZM72.6094 46.3162L66.7854 51.6922L67.8706 52.8678L73.6946 47.4918L72.6094 46.3162ZM67.908 51.729C66.4233 50.1662 64.785 48.9964 62.9912 48.239L62.3688 49.713C63.935 50.3743 65.3954 51.4072 66.748 52.831L67.908 51.729ZM63.0049 48.2449C61.215 47.4494 59.2739 47.056 57.192 47.056V48.656C59.0674 48.656 60.785 49.0092 62.3551 49.707L63.0049 48.2449ZM57.192 47.056C55.2037 47.056 53.3696 47.3681 51.6992 48.0044L52.2688 49.4996C53.7344 48.9412 55.3723 48.656 57.192 48.656V47.056ZM51.6992 48.0044C50.0343 48.6387 48.5781 49.5546 47.3397 50.7531L48.4523 51.9029C49.5285 50.8614 50.7977 50.06 52.2688 49.4996L51.6992 48.0044ZM47.3303 50.7623C46.1327 51.9599 45.198 53.3745 44.525 54.9976L46.003 55.6104C46.5993 54.1721 47.4193 52.9361 48.4617 51.8937L47.3303 50.7623ZM44.5187 55.0132C43.8807 56.6483 43.568 58.4473 43.568 60.4H45.168C45.168 58.6194 45.4527 57.0211 46.0093 55.5948L44.5187 55.0132ZM43.568 60.4C43.568 62.3176 43.8814 64.0975 44.5187 65.7308L46.0093 65.1492C45.452 63.7211 45.168 62.1411 45.168 60.4H43.568ZM44.525 65.7464C45.1971 67.3672 46.1292 68.7967 47.3211 70.0283L48.4709 68.9157C47.4228 67.8327 46.6003 66.5741 46.003 65.1336L44.525 65.7464ZM47.3397 70.0469C48.5749 71.2422 50.0096 72.1581 51.6372 72.7933L52.2188 71.3027C50.7851 70.7432 49.5318 69.9417 48.4523 68.8971L47.3397 70.0469ZM51.6432 72.7956C53.3118 73.4313 55.1269 73.744 57.08 73.744V72.144C55.2998 72.144 53.6802 71.8594 52.2128 71.3004L51.6432 72.7956ZM57.08 73.744C58.9569 73.744 60.7784 73.4505 62.541 72.8629L62.035 71.3451C60.4376 71.8775 58.7871 72.144 57.08 72.144V73.744ZM62.5508 72.8596C64.3774 72.2243 66.1246 71.1787 67.7938 69.7424L66.7502 68.5296C65.2087 69.856 63.6333 70.7891 62.0252 71.3484L62.5508 72.8596ZM66.6431 69.6305L71.7951 76.1825L73.0529 75.1935L67.9009 68.6415L66.6431 69.6305ZM71.9422 75.0493C69.8974 76.5919 67.5015 77.7839 64.7443 78.6183L65.2077 80.1497C68.1252 79.2668 70.6946 77.9947 72.9058 76.3267L71.9422 75.0493ZM64.7415 78.6192C62.0139 79.4556 59.2929 79.872 56.576 79.872V81.472C59.4591 81.472 62.3381 81.0297 65.2106 80.1488L64.7415 78.6192ZM64.936 74.512V59.784H63.336V74.512H64.936ZM64.136 60.584H72.424V58.984H64.136V60.584ZM71.624 59.784V75.688H73.224V59.784H71.624ZM72.5364 74.8959L64.2484 73.7199L64.0236 75.3041L72.3116 76.4801L72.5364 74.8959ZM84.7151 80H83.9151V80.8H84.7151V80ZM84.7151 49.872V49.072H83.9151V49.872H84.7151ZM93.0591 49.872H93.8591V49.072H93.0591V49.872ZM93.0591 58.384L92.3371 58.7286L93.8591 58.384H93.0591ZM91.8831 55.92L91.1458 55.6096L91.0065 55.9405L91.1611 56.2646L91.8831 55.92ZM96.1951 51.104L96.5792 51.8059L96.5892 51.8002L96.1951 51.104ZM103.419 49.424H104.219V48.624H103.419V49.424ZM103.419 57.488L103.34 58.284L104.219 58.372V57.488H103.419ZM102.411 57.432L102.312 58.2258L102.361 58.232H102.411V57.432ZM95.6351 59.448L96.1777 60.0358L96.1784 60.0353L95.6351 59.448ZM93.4511 80V80.8H94.2511V80H93.4511ZM85.5151 80V49.872H83.9151V80H85.5151ZM84.7151 50.672H93.0591V49.072H84.7151V50.672ZM92.2591 49.872V58.384H93.8591V49.872H92.2591ZM93.7811 58.0394L92.6051 55.5754L91.1611 56.2646L92.3371 58.7286L93.7811 58.0394ZM92.6204 56.2304C93.4481 54.2648 94.7631 52.7995 96.5791 51.8058L95.8111 50.4022C93.6698 51.5738 92.1102 53.3192 91.1458 55.6096L92.6204 56.2304ZM96.5892 51.8002C98.4213 50.7631 100.686 50.224 103.419 50.224V48.624C100.477 48.624 97.9262 49.2049 95.801 50.4078L96.5892 51.8002ZM102.619 49.424V57.488H104.219V49.424H102.619ZM103.499 56.692C103.105 56.6526 102.742 56.632 102.411 56.632V58.232C102.678 58.232 102.986 58.2487 103.34 58.284L103.499 56.692ZM102.51 56.6382C102.175 56.5963 101.825 56.576 101.459 56.576V58.176C101.766 58.176 102.05 58.193 102.312 58.2258L102.51 56.6382ZM101.459 56.576C98.9058 56.576 96.7584 57.3192 95.0919 58.8607L96.1784 60.0353C97.4985 58.8142 99.2338 58.176 101.459 58.176V56.576ZM95.0925 58.8602C93.4101 60.4132 92.6511 62.7801 92.6511 65.776H94.2511C94.2511 63.0226 94.9482 61.1708 96.1777 60.0358L95.0925 58.8602ZM92.6511 65.776V80H94.2511V65.776H92.6511ZM93.4511 79.2H84.7151V80.8H93.4511V79.2ZM129.605 80H128.805V80.8H129.605V80ZM129.605 74.12H130.405V73.9536L130.338 73.801L129.605 74.12ZM129.045 72.832H128.245V72.9984L128.311 73.151L129.045 72.832ZM127.309 57.936L126.763 58.5209L126.773 58.5297L127.309 57.936ZM117.341 57.152L117.583 57.9147L117.594 57.9109L117.341 57.152ZM113.421 59.168L112.709 59.5336L113.155 60.4003L113.918 59.7948L113.421 59.168ZM110.285 53.064L109.824 52.41L109.255 52.8107L109.573 53.4296L110.285 53.064ZM116.221 50.376L116.009 49.6045L116.009 49.6045L116.221 50.376ZM133.973 52.672L134.492 52.0633L134.492 52.0633L133.973 52.672ZM137.781 80V80.8H138.581V80H137.781ZM114.373 79.272L114.021 79.9907L114.028 79.9939L114.035 79.9969L114.373 79.272ZM110.509 75.968L111.18 75.5326L111.18 75.5326L110.509 75.968ZM110.453 66.616L109.787 66.1722L109.783 66.1787L109.779 66.1853L110.453 66.616ZM114.653 63.48L114.945 64.2249L114.957 64.2197L114.653 63.48ZM130.109 62.304H130.909V61.504H130.109V62.304ZM130.109 67.4V68.2H130.909V67.4H130.109ZM118.797 68.408L118.276 67.8006L118.269 67.8069L118.262 67.8134L118.797 68.408ZM118.965 73.616L118.472 74.246L118.487 74.2578L118.502 74.2688L118.965 73.616ZM126.525 73.56L126.927 74.2518L126.935 74.2471L126.943 74.2421L126.525 73.56ZM129.045 70.48L129.804 70.227L129.103 68.1239L128.299 70.19L129.045 70.48ZM130.389 74.512L131.149 74.7606L131.231 74.5096L131.148 74.259L130.389 74.512ZM126.917 78.936L126.505 78.25L126.505 78.25L126.917 78.936ZM130.405 80V74.12H128.805V80H130.405ZM130.338 73.801L129.778 72.513L128.311 73.151L128.871 74.439L130.338 73.801ZM129.845 72.832V62.304H128.245V72.832H129.845ZM129.845 62.304C129.845 60.2596 129.203 58.5691 127.845 57.3423L126.773 58.5297C127.729 59.3936 128.245 60.6151 128.245 62.304H129.845ZM127.855 57.3512C126.524 56.1095 124.55 55.568 122.101 55.568V57.168C124.355 57.168 125.853 57.6718 126.763 58.5208L127.855 57.3512ZM122.101 55.568C120.407 55.568 118.735 55.844 117.088 56.3931L117.594 57.9109C119.083 57.4147 120.584 57.168 122.101 57.168V55.568ZM117.099 56.3894C115.49 56.8994 114.094 57.6132 112.924 58.5412L113.918 59.7948C114.913 59.0055 116.13 58.3752 117.583 57.9146L117.099 56.3894ZM114.132 58.8024L110.996 52.6984L109.573 53.4296L112.709 59.5336L114.132 58.8024ZM110.746 53.718C112.299 52.6232 114.19 51.7623 116.432 51.1475L116.009 49.6045C113.622 50.259 111.555 51.1901 109.824 52.41L110.746 53.718ZM116.432 51.1475C118.678 50.5317 120.959 50.224 123.277 50.224V48.624C120.816 48.624 118.393 48.951 116.009 49.6045L116.432 51.1475ZM123.277 50.224C127.75 50.224 131.106 51.2784 133.454 53.2807L134.492 52.0633C131.762 49.7349 127.988 48.624 123.277 48.624V50.224ZM133.454 53.2807C135.754 55.2429 136.981 58.3579 136.981 62.808H138.581C138.581 58.0741 137.269 54.4318 134.492 52.0633L133.454 53.2807ZM136.981 62.808V80H138.581V62.808H136.981ZM137.781 79.2H129.605V80.8H137.781V79.2ZM120.421 79.648C118.155 79.648 116.261 79.2702 114.711 78.5471L114.035 79.9969C115.845 80.8418 117.982 81.248 120.421 81.248V79.648ZM114.724 78.5533C113.156 77.7868 111.987 76.7764 111.18 75.5326L109.838 76.4034C110.823 77.9222 112.229 79.1145 114.021 79.9907L114.724 78.5533ZM111.18 75.5326C110.372 74.2867 109.965 72.8898 109.965 71.32H108.365C108.365 73.1848 108.854 74.8866 109.838 76.4034L111.18 75.5326ZM109.965 71.32C109.965 69.6612 110.36 68.2466 111.127 67.0467L109.779 66.1853C108.828 67.6734 108.365 69.3948 108.365 71.32H109.965ZM111.118 67.0598C111.902 65.8843 113.153 64.9276 114.945 64.2248L114.361 62.7352C112.345 63.5257 110.796 64.6597 109.787 66.1722L111.118 67.0598ZM114.957 64.2197C116.73 63.49 119.098 63.104 122.101 63.104V61.504C118.981 61.504 116.384 61.902 114.348 62.7403L114.957 64.2197ZM122.101 63.104H130.109V61.504H122.101V63.104ZM129.309 62.304V67.4H130.909V62.304H129.309ZM130.109 66.6H123.053V68.2H130.109V66.6ZM123.053 66.6C120.969 66.6 119.293 66.9292 118.276 67.8006L119.317 69.0154C119.869 68.5428 121.03 68.2 123.053 68.2V66.6ZM118.262 67.8134C117.346 68.6377 116.877 69.6941 116.877 70.928H118.477C118.477 70.1459 118.755 69.5223 119.332 69.0026L118.262 67.8134ZM116.877 70.928C116.877 72.2862 117.413 73.4176 118.472 74.246L119.458 72.986C118.799 72.4704 118.477 71.8098 118.477 70.928H116.877ZM118.502 74.2688C119.577 75.0303 120.972 75.368 122.605 75.368V73.768C121.176 73.768 120.144 73.471 119.427 72.9632L118.502 74.2688ZM122.605 75.368C124.189 75.368 125.637 75.0008 126.927 74.2518L126.123 72.8682C125.098 73.4632 123.933 73.768 122.605 73.768V75.368ZM126.943 74.2421C128.259 73.4355 129.209 72.2661 129.79 70.77L128.299 70.19C127.836 71.3819 127.105 72.2659 126.107 72.8779L126.943 74.2421ZM128.286 70.733L129.63 74.765L131.148 74.259L129.804 70.227L128.286 70.733ZM129.628 74.2634C129.051 76.0302 128.013 77.3456 126.505 78.25L127.328 79.622C129.181 78.5104 130.457 76.8765 131.149 74.7606L129.628 74.2634ZM126.505 78.25C124.986 79.1615 122.976 79.648 120.421 79.648V81.248C123.167 81.248 125.488 80.7265 127.328 79.622L126.505 78.25ZM161.311 78.768L161.717 78.0785L161.717 78.0785L161.311 78.768ZM156.831 73.672L156.102 74.0013L156.105 74.0084L156.109 74.0155L156.831 73.672ZM156.775 56.2L157.507 56.5238L157.507 56.5238L156.775 56.2ZM161.143 51.104L160.738 50.4145L160.738 50.4145L161.143 51.104ZM175.591 51.384L175.188 52.075L175.195 52.079L175.202 52.0828L175.591 51.384ZM180.967 56.76L180.271 57.1533L180.275 57.1617L180.967 56.76ZM180.967 73.168L180.275 72.7663L180.271 72.7747L180.967 73.168ZM175.591 78.544L175.202 77.8452L175.197 77.848L175.591 78.544ZM150.167 90.864H149.367V91.664H150.167V90.864ZM150.167 49.872V49.072H149.367V49.872H150.167ZM158.511 49.872H159.311V49.072H158.511V49.872ZM158.511 56.032L159.311 56.047L159.311 56.0395V56.032H158.511ZM158.343 64.992L157.543 64.977L157.543 65.0096L157.545 65.0422L158.343 64.992ZM158.903 73.896H159.703V73.8709L159.702 73.8458L158.903 73.896ZM158.903 90.864V91.664H159.703V90.864H158.903ZM170.327 72.272L169.926 71.5801L169.916 71.586L170.327 72.272ZM173.071 69.416L172.373 69.0257L172.369 69.0329L173.071 69.416ZM173.071 60.456L172.369 60.8391L172.373 60.8472L172.378 60.8552L173.071 60.456ZM170.327 57.6L169.916 58.2861L169.926 58.2918L170.327 57.6ZM162.543 57.6L162.945 58.2918L162.945 58.2918L162.543 57.6ZM159.799 60.456L160.502 60.8391L160.502 60.8391L159.799 60.456ZM159.799 69.416L159.092 69.7903L159.097 69.7991L159.799 69.416ZM162.543 72.272L162.945 71.5802L162.945 71.5802L162.543 72.272ZM167.975 79.648C165.558 79.648 163.481 79.1159 161.717 78.0785L160.906 79.4575C162.95 80.6601 165.316 81.248 167.975 81.248V79.648ZM161.717 78.0785C159.97 77.0506 158.578 75.4825 157.554 73.3285L156.109 74.0155C157.25 76.4162 158.845 78.2454 160.906 79.4575L161.717 78.0785ZM157.56 73.3427C156.576 71.1631 156.063 68.3724 156.063 64.936H154.463C154.463 68.5182 154.996 71.5516 156.102 74.0013L157.56 73.3427ZM156.063 64.936C156.063 61.457 156.559 58.6655 157.507 56.5238L156.044 55.8762C154.976 58.2891 154.463 61.3216 154.463 64.936H156.063ZM157.507 56.5238C158.456 54.3791 159.807 52.8181 161.549 51.7935L160.738 50.4145C158.671 51.6299 157.11 53.4662 156.044 55.8762L157.507 56.5238ZM161.549 51.7935C163.307 50.7591 165.439 50.224 167.975 50.224V48.624C165.211 48.624 162.787 49.2089 160.738 50.4145L161.549 51.7935ZM167.975 50.224C170.685 50.224 173.082 50.8463 175.188 52.075L175.994 50.693C173.621 49.3083 170.941 48.624 167.975 48.624V50.224ZM175.202 52.0828C177.348 53.279 179.035 54.9641 180.271 57.1533L181.664 56.3667C180.286 53.9265 178.389 52.0277 175.981 50.6852L175.202 52.0828ZM180.275 57.1617C181.537 59.3348 182.183 61.9167 182.183 64.936H183.783C183.783 61.6833 183.085 58.8145 181.659 56.3583L180.275 57.1617ZM182.183 64.936C182.183 67.9946 181.536 70.5946 180.275 72.7663L181.659 73.5697C183.086 71.1121 183.783 68.2241 183.783 64.936H182.183ZM180.271 72.7747C179.035 74.9639 177.348 76.649 175.202 77.8452L175.981 79.2428C178.389 77.9003 180.286 76.0015 181.664 73.5613L180.271 72.7747ZM175.197 77.848C173.089 79.0424 170.689 79.648 167.975 79.648V81.248C170.936 81.248 173.613 80.5843 175.986 79.24L175.197 77.848ZM150.967 90.864V49.872H149.367V90.864H150.967ZM150.167 50.672H158.511V49.072H150.167V50.672ZM157.711 49.872V56.032H159.311V49.872H157.711ZM157.711 56.017L157.543 64.977L159.143 65.007L159.311 56.047L157.711 56.017ZM157.545 65.0422L158.105 73.9462L159.702 73.8458L159.142 64.9418L157.545 65.0422ZM158.103 73.896V90.864H159.703V73.896H158.103ZM158.903 90.064H150.167V91.664H158.903V90.064ZM166.463 74.08C168.047 74.08 169.481 73.7129 170.739 72.958L169.916 71.586C168.934 72.1751 167.791 72.48 166.463 72.48V74.08ZM170.729 72.9638C172.019 72.2147 173.035 71.153 173.774 69.7991L172.369 69.0329C171.764 70.143 170.95 70.9853 169.926 71.5802L170.729 72.9638ZM173.77 69.8063C174.557 68.3977 174.935 66.7652 174.935 64.936H173.335C173.335 66.5415 173.005 67.8956 172.373 69.0257L173.77 69.8063ZM174.935 64.936C174.935 63.0738 174.558 61.4357 173.765 60.0568L172.378 60.8552C173.003 61.9403 173.335 63.2889 173.335 64.936H174.935ZM173.774 60.0729C173.035 58.719 172.019 57.6573 170.729 56.9082L169.926 58.2918C170.95 58.8867 171.764 59.729 172.369 60.8391L173.774 60.0729ZM170.739 56.914C169.481 56.1591 168.047 55.792 166.463 55.792V57.392C167.791 57.392 168.934 57.6969 169.916 58.286L170.739 56.914ZM166.463 55.792C164.879 55.792 163.432 56.1592 162.142 56.9082L162.945 58.2918C163.97 57.6968 165.136 57.392 166.463 57.392V55.792ZM162.142 56.9082C160.851 57.6573 159.836 58.719 159.097 60.0729L160.502 60.8391C161.107 59.729 161.921 58.8867 162.945 58.2918L162.142 56.9082ZM159.097 60.0729C158.347 61.4483 157.991 63.0804 157.991 64.936H159.591C159.591 63.2822 159.908 61.9277 160.502 60.8391L159.097 60.0729ZM157.991 64.936C157.991 66.7584 158.348 68.3851 159.092 69.7903L160.506 69.0417C159.906 67.9082 159.591 66.5483 159.591 64.936H157.991ZM159.097 69.7991C159.836 71.153 160.851 72.2147 162.142 72.9638L162.945 71.5802C161.921 70.9853 161.107 70.143 160.502 69.0329L159.097 69.7991ZM162.142 72.9638C163.432 73.7128 164.879 74.08 166.463 74.08V72.48C165.136 72.48 163.97 72.1752 162.945 71.5802L162.142 72.9638ZM218.007 50.88L217.638 51.5898L217.647 51.5942L217.655 51.5983L218.007 50.88ZM222.487 55.248L221.786 55.632L221.789 55.6377L222.487 55.248ZM224.111 80V80.8H224.911V80H224.111ZM215.375 80H214.575V80.8H215.375V80ZM213.751 58.72L213.158 59.2563L213.167 59.2665L213.751 58.72ZM205.519 57.88L205.887 58.5906L205.896 58.5859L205.519 57.88ZM202.943 60.512L202.237 60.1367L202.232 60.1454L202.228 60.1542L202.943 60.512ZM202.047 80V80.8H202.847V80H202.047ZM193.311 80H192.511V80.8H193.311V80ZM193.311 38.448V37.648H192.511V38.448H193.311ZM202.047 38.448H202.847V37.648H202.047V38.448ZM202.047 58.216L201.416 58.7072L202.847 60.5476V58.216H202.047ZM200.087 55.696L199.383 55.3175L199.136 55.7762L199.456 56.1872L200.087 55.696ZM204.735 51.048L205.114 51.7528L205.114 51.7528L204.735 51.048ZM211.623 50.224C213.902 50.224 215.9 50.686 217.638 51.5898L218.376 50.1702C216.381 49.1327 214.124 48.624 211.623 48.624V50.224ZM217.655 51.5983C219.401 52.4542 220.777 53.7884 221.786 55.632L223.189 54.864C222.033 52.7502 220.421 51.1724 218.359 50.1617L217.655 51.5983ZM221.789 55.6377C222.785 57.4233 223.311 59.778 223.311 62.752H224.911C224.911 59.6033 224.356 56.9553 223.186 54.8583L221.789 55.6377ZM223.311 62.752V80H224.911V62.752H223.311ZM224.111 79.2H215.375V80.8H224.111V79.2ZM216.175 80V64.096H214.575V80H216.175ZM216.175 64.096C216.175 61.571 215.615 59.5409 214.336 58.1735L213.167 59.2665C214.053 60.2137 214.575 61.7677 214.575 64.096H216.175ZM214.345 58.1838C213.112 56.8189 211.379 56.184 209.271 56.184V57.784C211.046 57.784 212.3 58.3065 213.158 59.2562L214.345 58.1838ZM209.271 56.184C207.771 56.184 206.389 56.5096 205.143 57.1741L205.896 58.5859C206.89 58.0557 208.009 57.784 209.271 57.784V56.184ZM205.152 57.1694C203.909 57.8123 202.939 58.8149 202.237 60.1367L203.65 60.8873C204.217 59.8198 204.964 59.0677 205.887 58.5906L205.152 57.1694ZM202.228 60.1542C201.557 61.4951 201.247 63.1596 201.247 65.104H202.847C202.847 63.3151 203.135 61.9182 203.659 60.8698L202.228 60.1542ZM201.247 65.104V80H202.847V65.104H201.247ZM202.047 79.2H193.311V80.8H202.047V79.2ZM194.111 80V38.448H192.511V80H194.111ZM193.311 39.248H202.047V37.648H193.311V39.248ZM201.247 38.448V58.216H202.847V38.448H201.247ZM202.679 57.7248L200.719 55.2048L199.456 56.1872L201.416 58.7072L202.679 57.7248ZM200.792 56.0745C201.8 54.197 203.236 52.7611 205.114 51.7528L204.357 50.3432C202.202 51.5002 200.54 53.163 199.383 55.3175L200.792 56.0745ZM205.114 51.7528C207 50.7401 209.163 50.224 211.623 50.224V48.624C208.932 48.624 206.503 49.1905 204.357 50.3432L205.114 51.7528ZM236.51 80H235.71V80.8H236.51V80ZM236.51 49.872V49.072H235.71V49.872H236.51ZM245.246 49.872H246.046V49.072H245.246V49.872ZM245.246 80V80.8H246.046V80H245.246ZM236.958 44.272L236.415 44.859L236.415 44.859L236.958 44.272ZM236.958 37.328L237.502 37.915L237.502 37.915L236.958 37.328ZM244.798 37.272L244.267 37.8699L244.273 37.8755L244.279 37.881L244.798 37.272ZM244.798 44.272L245.353 44.8487L245.353 44.8483L244.798 44.272ZM237.31 80V49.872H235.71V80H237.31ZM236.51 50.672H245.246V49.072H236.51V50.672ZM244.446 49.872V80H246.046V49.872H244.446ZM245.246 79.2H236.51V80.8H245.246V79.2ZM240.878 44.872C239.438 44.872 238.337 44.4586 237.502 43.685L236.415 44.859C237.595 45.952 239.107 46.472 240.878 46.472V44.872ZM237.502 43.685C236.658 42.904 236.246 41.9599 236.246 40.8H234.646C234.646 42.4028 235.242 43.7733 236.415 44.859L237.502 43.685ZM236.246 40.8C236.246 39.6401 236.658 38.696 237.502 37.915L236.415 36.741C235.242 37.8267 234.646 39.1972 234.646 40.8H236.246ZM237.502 37.915C238.337 37.1414 239.438 36.728 240.878 36.728V35.128C239.107 35.128 237.595 35.648 236.415 36.741L237.502 37.915ZM240.878 36.728C242.327 36.728 243.432 37.128 244.267 37.8699L245.33 36.6741C244.148 35.624 242.64 35.128 240.878 35.128V36.728ZM244.279 37.881C245.1 38.5803 245.51 39.4735 245.51 40.632H247.11C247.11 39.0279 246.512 37.681 245.317 36.663L244.279 37.881ZM245.51 40.632C245.51 41.8805 245.088 42.8826 244.243 43.6957L245.353 44.8483C246.525 43.7201 247.11 42.2955 247.11 40.632H245.51ZM244.244 43.6953C243.453 44.4552 242.362 44.872 240.878 44.872V46.472C242.679 46.472 244.202 45.9555 245.353 44.8487L244.244 43.6953ZM265.058 73.84L264.258 73.8232L264.217 75.789L265.619 74.4105L265.058 73.84ZM265.282 63.2L264.731 62.6195L264.489 62.8493L264.482 63.1832L265.282 63.2ZM279.338 49.872V49.072H279.019L278.787 49.2915L279.338 49.872ZM289.754 49.872L290.324 50.433L291.663 49.072H289.754V49.872ZM276.258 63.592L276.763 64.2122L276.797 64.1844L276.828 64.153L276.258 63.592ZM271.722 67.288L271.217 66.6678L271.188 66.6914L271.161 66.7175L271.722 67.288ZM257.834 80H257.034V80.8H257.834V80ZM257.834 38.448V37.648H257.034V38.448H257.834ZM266.57 38.448H267.37V37.648H266.57V38.448ZM266.57 80V80.8H267.37V80H266.57ZM280.29 80L279.667 80.5018L279.907 80.8H280.29V80ZM270.098 67.344L269.476 66.8405L269.07 67.3426L269.475 67.8458L270.098 67.344ZM275.586 60.568L276.215 60.0733L275.595 59.2857L274.964 60.0645L275.586 60.568ZM290.874 80V80.8H292.521L291.503 79.5053L290.874 80ZM265.858 73.8568L266.082 63.2168L264.482 63.1832L264.258 73.8232L265.858 73.8568ZM265.832 63.7805L279.888 50.4525L278.787 49.2915L264.731 62.6195L265.832 63.7805ZM279.338 50.672H289.754V49.072H279.338V50.672ZM289.184 49.311L275.688 63.031L276.828 64.153L290.324 50.433L289.184 49.311ZM275.753 62.9718L271.217 66.6678L272.227 67.9082L276.763 64.2122L275.753 62.9718ZM271.161 66.7175L264.497 73.2695L265.619 74.4105L272.283 67.8585L271.161 66.7175ZM258.634 80V38.448H257.034V80H258.634ZM257.834 39.248H266.57V37.648H257.834V39.248ZM265.77 38.448V80H267.37V38.448H265.77ZM266.57 79.2H257.834V80.8H266.57V79.2ZM280.913 79.4982L270.721 66.8422L269.475 67.8458L279.667 80.5018L280.913 79.4982ZM270.72 67.8475L276.208 61.0715L274.964 60.0645L269.476 66.8405L270.72 67.8475ZM274.957 61.0627L290.245 80.4947L291.503 79.5053L276.215 60.0733L274.957 61.0627ZM290.874 79.2H280.29V80.8H290.874V79.2ZM294.381 80L293.745 79.5149L292.765 80.8H294.381V80ZM307.877 62.304L308.676 62.3319L308.764 59.8216L307.241 61.8189L307.877 62.304ZM307.709 67.12L307.069 67.6L308.429 69.414L308.508 67.1479L307.709 67.12ZM294.773 49.872V49.072H293.173L294.133 50.352L294.773 49.872ZM304.573 49.872L305.22 49.4018L304.981 49.072H304.573V49.872ZM312.749 61.128L312.773 61.9276L314.285 61.8818L313.396 60.6578L312.749 61.128ZM309.053 61.24L308.411 60.7625L307.424 62.0897L309.077 62.0396L309.053 61.24ZM317.509 49.872V49.072H317.107L316.867 49.3945L317.509 49.872ZM326.805 49.872L327.442 50.3563L328.419 49.072H326.805V49.872ZM313.813 66.952H313.013V69.3251L314.45 67.4363L313.813 66.952ZM313.813 62.248L314.451 61.7651L313.013 59.866V62.248H313.813ZM327.253 80V80.8H328.862L327.891 79.5171L327.253 80ZM317.341 80L316.69 80.4653L316.929 80.8H317.341V80ZM308.773 68.016L308.883 67.2236L307.041 66.9685L308.122 68.4813L308.773 68.016ZM312.413 68.52L313.055 68.9965L313.859 67.9126L312.523 67.7276L312.413 68.52ZM303.901 80V80.8H304.304L304.543 80.4765L303.901 80ZM295.017 80.4851L308.513 62.7891L307.241 61.8189L293.745 79.5149L295.017 80.4851ZM307.077 62.2761L306.909 67.0921L308.508 67.1479L308.676 62.3319L307.077 62.2761ZM308.349 66.64L295.413 49.392L294.133 50.352L307.069 67.6L308.349 66.64ZM294.773 50.672H304.573V49.072H294.773V50.672ZM303.926 50.3422L312.102 61.5982L313.396 60.6578L305.22 49.4018L303.926 50.3422ZM312.725 60.3284L309.029 60.4404L309.077 62.0396L312.773 61.9276L312.725 60.3284ZM309.695 61.7175L318.151 50.3495L316.867 49.3945L308.411 60.7625L309.695 61.7175ZM317.509 50.672H326.805V49.072H317.509V50.672ZM326.168 49.3877L313.176 66.4677L314.45 67.4363L327.442 50.3563L326.168 49.3877ZM314.613 66.952V62.248H313.013V66.952H314.613ZM313.175 62.7309L326.615 80.4829L327.891 79.5171L314.451 61.7651L313.175 62.7309ZM327.253 79.2H317.341V80.8H327.253V79.2ZM317.992 79.5347L309.424 67.5507L308.122 68.4813L316.69 80.4653L317.992 79.5347ZM308.663 68.8084L312.303 69.3124L312.523 67.7276L308.883 67.2236L308.663 68.8084ZM311.77 68.0435L303.258 79.5235L304.543 80.4765L313.055 68.9965L311.77 68.0435ZM303.901 79.2H294.381V80.8H303.901V79.2Z" fill="#1B2CC1"/>
</svg>
